<svg id="Capa_1" xmlns="http://www.w3.org/2000/svg" viewBox="0 0 120 120"><style>.st0{fill:#1fba0a}</style><path class="st0" d="M6 86c.1 1 1.1 1.2 2 1.5 4.1-1.7 6.7-4.8 10.3-7 1.5-1.4 3.4-2.4 5-3.8 1.8-1.1 3.3-2.5 5.3-3.5 1.5-1.3 3.3-2.4 5-3.5 1.8-1.2 3.4-2.6 5.3-3.5.6-.8 1.6-1.2 2.5-1.8.8-.7 1.6-1.4 2.8-1.7 1.5-1.4 3.5-2.4 5.3-3.5 7-4.6 14.8-8.4 22-12.8 3.4-2.4 7.1-4.4 10-7.3 1.6-1.3 2.9-3 4.5-4.3 1.5-1.4 3.8-2.1 4-4.7.2-2.1-.9-2.8-1.5-4-.4-1.5-1.2-2.7-1.7-4-2.4-2.6-4.8-5.2-8.3-6.7-3.3-1.8-7.3-2.9-12-3.3H58c-.3 0-.3.3-.8.3-6 .3-11 1.7-15.7 3.3-2.4.8-4.8 1.6-6.8 2.7-2.5.7-4.3 2.1-6.5 3-.6-.5-.5-1.6-1.3-2-.3-.9-1.3-1-2-1.5-2.7-.3-4.1.6-5.8 1.3-.3.8-1.5.9-1.8 1.8-.1.5-.7.5-.8 1-.4.1 0 1.2-.5 1.3-.2 2.6.4 4.4 1.5 5.7C9.4 36.8 2.1 45.7 0 59.7V68c.6 4 1.5 7.7 2.8 11 .5 1.7 1.3 3.2 1.8 5 .2.9.9 1.3 1.4 2zm17.8-63.8c.4.8.5 2.6-.8 2.5-.8-.2-1-1-1-2 .6-.1 1-.5 1.8-.5zM8 61.7c.8-2.7 1.1-5.9 2.5-8 .6-2.8 2.1-4.7 2.8-7.5 2.5-4.4 5.6-8.3 8.8-12 1.7-1.2 3.5-2.2 5-3.5.7-.3.3-1.9.8-2.5 1.1-.5 2.3-1.1 3.3-2 .7-.2 1.4-.4 1.8-1 .7-.2 1.3-.4 1.8-.8 2.4-1 4.7-2.1 7.3-3 5.2-1.6 10.4-3.2 17-3.5.4.1.4-.2.8-.2 9.9-.6 16.8 1.8 21.5 6.5.7.7.6 2.1 1.5 2.5.4.8.8 1.7 1 2.8-.2 1.1-1.5 1.1-2.3 1.8-.6.6-1 1.5-1.8 2-1.1 1.5-2.8 2.3-4 3.7-1.8.8-2.9 2.3-4.8 3-1.3 1.2-3.1 1.9-4.5 3-3.3 1.8-6.5 3.7-9.8 5.5-1.8.8-3.3 1.9-5 2.8-1.6.9-3 2-4.8 2.7-1.2 1.4-3.3 1.9-4.5 3.3-1.1.3-1.5 1.2-2.5 1.5-.7.6-1.4 1.1-2.3 1.5-1.4 1.2-3 2.2-4.5 3.3-1.3 1.2-3 2-4.3 3.2-1.8.8-3 2.2-4.8 3-1.2 1.3-3.1 1.9-4.3 3.3-1.7.9-3.1 2.1-4.5 3.3-.8.4-1.3 1.2-2.3 1.5-.5.7-1.1 1.4-2.3 1.5-.9-2.9-2.2-5.5-3-8.5.2-3.2 0-6.4.4-9.2zm6.3 9.6c.9.1 1.1-.5 1.5-1 .7-.1.2-1.5.8-1.8v-5c.3-1.1.4-2.5.5-3.8.8-1.1.8-3.1 1.8-4 .5-1.4 1-2.8 2-3.8.4-1.5 1.5-2.3 2.3-3.5.7-1.3 1.9-2.1 2.5-3.5 2.1-1.8 3.6-4.1 5.8-5.8 1.6-2.3 5-3.1 5-6.7-.5-.7-1-1.5-2.5-1.3-.3.1-.5.4-1 .3-5 3.1-8.7 7.5-12.5 11.7-3.5 4.6-6.7 9.4-8.3 16 .2.8-.3.9-.3 1.5v6.5c0 2.2.2 4.1 2.4 4.2zM113.8 94c-5.9.1-10.9-.6-16.8-.5-5.6.1-10.6.9-16 1.3 1.5-1.5 3.5-2.3 5.2-3.5 1.8-1.2 3.4-2.6 5.3-3.7 3.5-3.6 6.9-7.3 7.7-13.5v-4c-.4-1.4-.5-3.2-1.3-4.3-.4-1.5-1.5-2.4-2.5-3.2-2.7.2-4.2-.8-7-.5-10.8 1.6-16.3 8.8-21.4 16.4-3.3-4.7-7.2-8.8-13.5-10.5-4.5-.7-9.7-.1-12 2.3 0 .4-.2.6-.5.8-.7 1.8-.5 4.5-.5 7C41 81 42 83.3 43 85.6c.6.6 1.2 1.1 1.5 2 1.6 1.4 3.2 2.8 4.8 4.3.9.6 1.6 1.4 2.8 1.7.4.4.9.6 1.5.8.1.6 1.4.3.8 1-9.3-.8-19.7-.4-29.8-.5-1 .2-2.7-.3-3.3.3-2.1.1-4.8-.3-6.5.2H8c-.7.4-2.1.3-3 .5-.9.3-1.7.6-1.8 1.8.3.6.8 1 1.6 1.3.7.3 1.9 0 2.5.5 2.1 0 4.2 0 6 .3h4c2.2 1.7 3.2 4.5 5 6.5 1.1.4 2.1.9 3.3 1.3.2.1.5 0 .5.2 8.8-.1 17.7 0 25.8-.8 4.2.2 8.3-.3 12.3-.5 4.1-.2 7.9-.3 11.7-.5 8.2-.5 16.2-1 25.8-.7.7-1.2 1.1-2.6 1.7-3.8.1-.8 1-.9 1-1.8.7-.2.5-1.3 1.5-1.3 2.9-.1 5.4.1 8 .3 1.5-.2 2.3.4 3.7.3 1.7.3 1.7-1.2 2.5-1.8-.9-2.3-3.8-2.6-6.3-3.2zM28 101.3c-1.1-.2-1.5.3-2.5.2-.9-.2-1.2-1-1.5-1.8h4v1.6zm3.5-.6v-1c1.3-.1 2.9-.6 3.5.5-.5.8-2.6 1-3.5.5zm6.5-.2v-.8c.8-.2 3 .1 4.5 0-1.1.7-3.4 1-4.5.8zm25.5-13.8c-.6.6-.7-.3-1-.8-.6-.2-.6-.9-1-1.3-.6-.8-1.4-1.4-2-2.2-1.7-1.1-2.4-3.2-5.3-3.3-1 .1-1.6.7-1.8 1.7-.1 1.6 1 2 1.8 2.8.6.9 1.4 1.6 2.3 2.2.4 1.1 1.4 1.6 1.8 2.8.8.6 1 1.8 1.8 2.5-.6.6-1.7-.3-2.3-.5-.9-.1-1.3-.7-2.3-.8-1.4-1.4-3.2-2.3-4.8-3.5-2.9-3.2-5.3-6.9-5.3-13V73c.2 0 .2-.3.5-.3h5c3.9.6 6.3 2.7 8.5 5 1 1 2.2 2.3 3 3.8.3.6.8 1.7 1 2.5.3.9.5 1.7.1 2.7zm7.3-4c.5-1.3 1.3-2.3 2-3.5 1.4-2.2 3.2-4 4.8-6 3.7-2.9 7.1-6.1 13.8-6 1 .6 2.1 1.1 3 1.8.2 2.2.2 3.3 0 5.5-.5.8-.7 2-1.3 2.8-.4.9-1 1.7-1.5 2.5-1.1 1.5-2.6 2.5-3.8 4-5.6 3.8-11.2 7.6-17.8 10.5.4-1.1 1.2-1.7 1.7-2.5.7-.7 1.1-1.7 2-2.3 1.2-1.6 2.8-2.8 4.3-4.3 1.6-1.2 3.4-2.2 4.8-3.7 1.1-.3 1.6-1.3 2.3-2 .8-.6 1.6-1.2 1.5-2.8-1.2-1.7-4-.1-5.3.5-1.7.8-3.1 1.8-4.5 2.8-1.4 1-2.6 2.2-4 3.3-.5.7-1.1 1.3-1.8 1.8-.1.5-.7.5-.7 1-.1.2-.7 1.1-.8.5-.5-1.3.6-2.9 1.3-3.9zm22.5 17.8H87c-1.6.4-3.9.1-5.5.5H78c-.9-.2-1 .4-1.7.3h-5.5c-1.2.1-2.3.4-3.8.2.2-1 1.6-.7 2.3-1.2 9.3 0 17.5-1 26.5-1.3.4.1.4-.2.8-.3h1.3c-.5 1.8-2.4 2-4.6 1.8z" id="_x30_401-vegan"/></svg>