<svg xmlns="http://www.w3.org/2000/svg" viewBox="0 0 120 120" width="120" height="120"><style>tspan{white-space:pre}.shp0{fill:#1fba0a}</style><g id="_x30_401-vegan"><g id="Layer"><path id="Layer" class="shp0" d="M4.6 84c-.5-1.8-1.3-3.3-1.8-5C1.5 75.7.6 72 0 68v-8.3c2.1-14 9.4-22.9 17.5-30.7-1.1-1.3-1.7-3.1-1.5-5.7.5-.1.1-1.2.5-1.3.1-.5.7-.5.8-1 .3-.9 1.5-1 1.8-1.8 1.7-.7 3.1-1.6 5.8-1.3.7.5 1.7.6 2 1.5.8.4.7 1.5 1.3 2 2.2-.9 4-2.3 6.5-3 2-1.1 4.4-1.9 6.8-2.7 4.7-1.6 9.7-3 15.7-3.3.5 0 .5-.3.8-.3h8.5c4.7.4 8.7 1.5 12 3.3 3.5 1.5 5.9 4.1 8.3 6.7.5 1.3 1.3 2.5 1.7 4 .6 1.2 1.7 1.9 1.5 4-.2 2.6-2.5 3.3-4 4.7-1.6 1.3-2.9 3-4.5 4.3-2.9 2.9-6.6 4.9-10 7.3-7.2 4.4-15 8.2-22 12.8-1.8 1.1-3.8 2.1-5.3 3.5-1.2.3-2 1-2.8 1.7-.9.6-1.9 1-2.5 1.8-1.9.9-3.5 2.3-5.3 3.5-1.7 1.1-3.5 2.2-5 3.5-2 1-3.5 2.4-5.3 3.5-1.6 1.4-3.5 2.4-5 3.8-3.6 2.2-6.2 5.3-10.3 7-.9-.3-1.9-.5-2-1.5-.5-.7-1.2-1.1-1.4-2zm3-13.1c.8 3 2.1 5.6 3 8.5 1.2-.1 1.8-.8 2.3-1.5 1-.3 1.5-1.1 2.3-1.5 1.4-1.2 2.8-2.4 4.5-3.3 1.2-1.4 3.1-2 4.3-3.3 1.8-.8 3-2.2 4.8-3 1.3-1.2 3-2 4.3-3.2 1.5-1.1 3.1-2.1 4.5-3.3.9-.4 1.6-.9 2.3-1.5 1-.3 1.4-1.2 2.5-1.5 1.2-1.4 3.3-1.9 4.5-3.3 1.8-.7 3.2-1.8 4.8-2.7 1.7-.9 3.2-2 5-2.8 3.3-1.8 6.5-3.7 9.8-5.5 1.4-1.1 3.2-1.8 4.5-3 1.9-.7 3-2.2 4.8-3 1.2-1.4 2.9-2.2 4-3.7.8-.5 1.2-1.4 1.8-2 .8-.7 2.1-.7 2.3-1.8-.2-1.1-.6-2-1-2.8-.9-.4-.8-1.8-1.5-2.5-4.7-4.7-11.6-7.1-21.5-6.5-.4 0-.4.3-.8.2-6.6.3-11.8 1.9-17 3.5-2.6.9-4.9 2-7.3 3-.5.4-1.1.6-1.8.8-.4.6-1.1.8-1.8 1-1 .9-2.2 1.5-3.3 2-.5.6-.1 2.2-.8 2.5-1.5 1.3-3.3 2.3-5 3.5-3.2 3.7-6.3 7.6-8.8 12-.7 2.8-2.2 4.7-2.8 7.5-1.4 2.1-1.7 5.3-2.5 8-.4 2.8-.2 6-.4 9.2zM22 22.7c0 1 .2 1.8 1 2 1.3.1 1.2-1.7.8-2.5-.8 0-1.2.4-1.8.5zM11.9 67.1v-6.5c0-.6.5-.7.3-1.5 1.6-6.6 4.8-11.4 8.3-16 3.8-4.2 7.5-8.6 12.5-11.7.5.1.7-.2 1-.3 1.5-.2 2 .6 2.5 1.3 0 3.6-3.4 4.4-5 6.7-2.2 1.7-3.7 4-5.8 5.8-.6 1.4-1.8 2.2-2.5 3.5-.8 1.2-1.9 2-2.3 3.5-1 1-1.5 2.4-2 3.8-1 .9-1 2.9-1.8 4-.1 1.3-.2 2.7-.5 3.8v5c-.6.3-.1 1.7-.8 1.8-.4.5-.6 1.1-1.5 1-2.2-.1-2.4-2-2.4-4.2zm108.2 30.1c-.8.6-.8 2.1-2.5 1.8-1.4.1-2.2-.5-3.7-.3-2.6-.2-5.1-.4-8-.3-1 0-.8 1.1-1.5 1.3 0 .9-.9 1-1 1.8-.6 1.2-1 2.6-1.7 3.8-9.6-.3-17.6.2-25.8.7-3.8.2-7.6.3-11.7.5-4 .2-8.1.7-12.3.5-8.1.8-17 .7-25.8.8 0-.2-.3-.1-.5-.2-1.2-.4-2.2-.9-3.3-1.3-1.8-2-2.8-4.8-5-6.5h-4c-1.8-.3-3.9-.3-6-.3-.6-.5-1.8-.2-2.5-.5-.8-.3-1.3-.7-1.6-1.3.1-1.2.9-1.5 1.8-1.8.9-.2 2.3-.1 3-.5h6.8c1.7-.5 4.4-.1 6.5-.2.6-.6 2.3-.1 3.3-.3 10.1.1 20.5-.3 29.8.5.6-.7-.7-.4-.8-1-.6-.2-1.1-.4-1.5-.8-1.2-.3-1.9-1.1-2.8-1.7-1.6-1.5-3.2-2.9-4.8-4.3-.3-.9-.9-1.4-1.5-2-1-2.3-2-4.6-2.5-7.5 0-2.5-.2-5.2.5-7 .3-.2.5-.4.5-.8 2.3-2.4 7.5-3 12-2.3 6.3 1.7 10.2 5.8 13.5 10.5 5.1-7.6 10.6-14.8 21.4-16.4 2.8-.3 4.3.7 7 .5 1 .8 2.1 1.7 2.5 3.2.8 1.1.9 2.9 1.3 4.3v4c-.8 6.2-4.2 9.9-7.7 13.5-1.9 1.1-3.5 2.5-5.3 3.7-1.7 1.2-3.7 2-5.2 3.5 5.4-.4 10.4-1.2 16-1.3 5.9-.1 10.9.6 16.8.5 2.5.6 5.4.9 6.3 3.2zM28 99.7h-4c.3.8.6 1.6 1.5 1.8 1 .1 1.4-.4 2.5-.2zm7 .5c-.6-1.1-2.2-.6-3.5-.5v1c.9.5 3 .3 3.5-.5zm7.5-.5c-1.5.1-3.7-.2-4.5 0v.8c1.1.2 3.4-.1 4.5-.8zM63.4 84c-.2-.8-.7-1.9-1-2.5-.8-1.5-2-2.8-3-3.8-2.2-2.3-4.6-4.4-8.5-5h-5c-.3 0-.3.3-.5.3v.3c0 6.1 2.4 9.8 5.3 13 1.6 1.2 3.4 2.1 4.8 3.5 1 .1 1.4.7 2.3.8.6.2 1.7 1.1 2.3.5-.8-.7-1-1.9-1.8-2.5-.4-1.2-1.4-1.7-1.8-2.8-.9-.6-1.7-1.3-2.3-2.2-.8-.8-1.9-1.2-1.8-2.8.2-1 .8-1.6 1.8-1.7 2.9.1 3.6 2.2 5.3 3.3.6.8 1.4 1.4 2 2.2.4.4.4 1.1 1 1.3.3.5.4 1.4 1 .8.4-1 .2-1.8-.1-2.7zm6.1 2.6c.1.6.7-.3.8-.5 0-.5.6-.5.7-1 .7-.5 1.3-1.1 1.8-1.8 1.4-1.1 2.6-2.3 4-3.3s2.8-2 4.5-2.8c1.3-.6 4.1-2.2 5.3-.5.1 1.6-.7 2.2-1.5 2.8-.7.7-1.2 1.7-2.3 2-1.4 1.5-3.2 2.5-4.8 3.7-1.5 1.5-3.1 2.7-4.3 4.3-.9.6-1.3 1.6-2 2.3-.5.8-1.3 1.4-1.7 2.5 6.6-2.9 12.2-6.7 17.8-10.5 1.2-1.5 2.7-2.5 3.8-4 .5-.8 1.1-1.6 1.5-2.5.6-.8.8-2 1.3-2.8.2-2.2.2-3.3 0-5.5-.9-.7-2-1.2-3-1.8-6.7-.1-10.1 3.1-13.8 6-1.6 2-3.4 3.8-4.8 6-.7 1.2-1.5 2.2-2 3.5-.7 1-1.8 2.6-1.3 3.9zm28.4 12.1h-1.3c-.4.1-.4.4-.8.3-9 .3-17.2 1.3-26.5 1.3-.7.5-2.1.2-2.3 1.2 1.5.2 2.6-.1 3.8-.2h5.5c.7.1.8-.5 1.7-.3h3.5c1.6-.4 3.9-.1 5.5-.5h6.3c2.2.2 4.1 0 4.6-1.8z"/></g></g></svg>