<svg xmlns="http://www.w3.org/2000/svg" viewBox="0 0 469 469" width="469" height="469"><style>tspan{white-space:pre}.shp0{fill:#1fba0a}</style><g id="Layer"><g id="Layer"><path id="Layer" class="shp0" d="M447.8 12.1c.9 73-11.2 145.8-64.1 199.8-.9.9-1.9 1.6-2.9 2.1-1.2.9-2.6 1.6-4.3 1.9-24.4 4.7-48.9 5.4-73.6 3.3-.1 1.7 1.1 3.2 3.3 4.9.3.2.5.5.8.7 16.4 4 33.1 4.1 49.7.8.8-.1 1.6-.2 2.4-.2 9.9-4.2 18.1 11.9 8.2 19.2-68.9 50.5-140.3 93.3-228.8 87.2-1.1-.1-2.1-.4-3.1-.7-35.1 41.1-67.1 85.1-95.8 132-7 11.4-25 1-18-10.5C48.9 408 79.1 366 112 326.6c-19.7-57.1-18.2-117.6 2.2-174.4.4-1.1.9-1.9 1.4-2.7 3-9.1 19.4-7.6 20.3 4.1 1.4 16.8 8.7 30.8 20.1 42.3-7.4-21.5-14.2-43.1-20.4-65-3.2-3.6-3.9-9 .8-13.2 24.9-22 51.3-42.1 80.1-58.8 1.5-.8 2.9-1.3 4.3-1.4 6.4-2.5 14.7.5 14 9.1-1.6 20.1 0 39.5 7.7 57.9-2.1-23.3-1.1-46.4 1.4-69.6.1-1.3.5-2.4 1-3.5.7-3.2 2.8-6.2 6.6-7.8 58-23.6 122-21.7 180.6-43 4.3-1.5 7.7-.2 9.9 2.3 3.3 1.4 5.9 4.4 5.8 9.2zm-20.7 12.2C373.8 41.1 316.6 41.6 264 61c-2.1 21.8-2.8 43.5-.7 65.4.3 3.5-.9 6-2.8 7.7-2.9 6.2-7.8 11.1-14 14.3-3.3 1.7-7 1.7-10.1.1-3.1-.1-6.1-1.6-8-5.2-9.7-18.4-14.3-37.9-14.9-58.1-20.1 12.8-39 27.1-57.1 42.7 6.3 22.2 13.2 44.2 20.8 65.9.7 2.1.7 4 .3 5.7 0 .8-.1 1.6-.3 2.4-2.4 9-8.3 16.8-17.7 19-4.2 1-8.5-.5-11-3.7-.1-.1-.3-.2-.4-.3-9.7-8-17.4-17.4-22.9-27.9-9 39.5-8.3 79.6 2.8 119 51-58.3 108.3-110.9 171.4-158.1.5-.8 1.1-1.5 2-2.2 27.1-21.3 50.3-46.3 69.9-74.6 7.6-10.9 25.7-.6 18 10.5-20.6 29.8-44.6 56.4-73.1 78.8-.6.5-1.2 1-1.9 1.3-.7 1.1-1.6 2.1-2.8 3-58.2 43.5-111.2 91.7-158.9 144.9 65.6.5 120.8-27.3 173.6-63.1-8.9-.5-17.8-1.8-26.6-4.1-2.7-.7-4.5-2.1-5.7-3.8-5.6-4.5-10.4-10-11.4-17.4-1.3-8.7 1.9-15.5 7.2-22.2 1.5-1.9 3.7-2.8 6-3 .8-.1 1.7-.2 2.7-.1 24.1 2.3 48 2.4 71.8-2.1C415.3 149 426.6 87 427.1 24.3z"/></g></g></svg>