<svg id="Capa_1" xmlns="http://www.w3.org/2000/svg" viewBox="0 0 468.1 468.1"><style>.st0{fill:#1fba0a}</style><path class="st0" d="M442 2.9c-2.2-2.5-5.6-3.8-9.9-2.3-58.6 21.3-122.6 19.4-180.6 43-3.8 1.6-5.9 4.6-6.6 7.8-.5 1.1-.9 2.2-1 3.5-2.5 23.2-3.5 46.3-1.4 69.6-7.7-18.4-9.3-37.8-7.7-57.9.7-8.6-7.6-11.6-14-9.1-1.4.1-2.8.6-4.3 1.4-28.8 16.7-55.2 36.8-80.1 58.8-4.7 4.2-4 9.6-.8 13.2 6.2 21.9 13 43.5 20.4 65-11.4-11.5-18.7-25.5-20.1-42.3-.9-11.7-17.3-13.2-20.3-4.1-.5.8-1 1.6-1.4 2.7C93.8 209 92.3 269.5 112 326.6 79.1 366 48.9 408 21.6 452.6c-7 11.5 11 21.9 18 10.5 28.7-46.9 60.7-90.9 95.8-132 1 .3 2 .6 3.1.7 88.5 6.1 159.9-36.7 228.8-87.2 9.9-7.3 1.7-23.4-8.2-19.2-.8 0-1.6.1-2.4.2-16.6 3.3-33.3 3.2-49.7-.8-.3-.2-.5-.5-.8-.7-2.2-1.7-3.4-3.2-3.3-4.9 24.7 2.1 49.2 1.4 73.6-3.3 1.7-.3 3.1-1 4.3-1.9 1-.5 2-1.2 2.9-2.1 52.9-54 65-126.8 64.1-199.8.1-4.8-2.5-7.8-5.8-9.2zm-71.8 192.9c-23.8 4.5-47.7 4.4-71.8 2.1-1-.1-1.9 0-2.7.1-2.3.2-4.5 1.1-6 3-5.3 6.7-8.5 13.5-7.2 22.2 1 7.4 5.8 12.9 11.4 17.4 1.2 1.7 3 3.1 5.7 3.8 8.8 2.3 17.7 3.6 26.6 4.1-52.8 35.8-108 63.6-173.6 63.1 47.7-53.2 100.7-101.4 158.9-144.9 1.2-.9 2.1-1.9 2.8-3 .7-.3 1.3-.8 1.9-1.3 28.5-22.4 52.5-49 73.1-78.8 7.7-11.1-10.4-21.4-18-10.5-19.6 28.3-42.8 53.3-69.9 74.6-.9.7-1.5 1.4-2 2.2C236.3 197.1 179 249.7 128 308c-11.1-39.4-11.8-79.5-2.8-119 5.5 10.5 13.2 19.9 22.9 27.9.1.1.3.2.4.3 2.5 3.2 6.8 4.7 11 3.7 9.4-2.2 15.3-10 17.7-19 .2-.8.3-1.6.3-2.4.4-1.7.4-3.6-.3-5.7-7.6-21.7-14.5-43.7-20.8-65.9 18.1-15.6 37-29.9 57.1-42.7.6 20.2 5.2 39.7 14.9 58.1 1.9 3.6 4.9 5.1 8 5.2 3.1 1.6 6.8 1.6 10.1-.1 6.2-3.2 11.1-8.1 14-14.3 1.9-1.7 3.1-4.2 2.8-7.7-2.1-21.9-1.4-43.6.7-65.4 52.6-19.4 109.8-19.9 163.1-36.7-.5 62.7-11.8 124.7-56.9 171.5z"/></svg>