<svg id="Capa_1" xmlns="http://www.w3.org/2000/svg" viewBox="0 0 52.2 52.2"><style>.st0{fill:#1fba0a}</style><path class="st0" d="M47.5 20.1c-2.2.4-4.8 2.2-8.2 1.7s-2.8-4.1-2.8-4.9.6-1.3 1.6-3.9-7-3.8-9.2-3.8-1.3.5-1.8.4-1.9-.4-4.1-.7-6.8.6-10.9 1.1S4 11.9 1.5 13.7c-2.5 1.8-1.5 6.2 0 8.7 1.5 2.5 3.3 5 5.2 6.3 1.9 1.3 6.2 3.1 6.2 3.5-.2 2 1.1 7.1 2.3 7.8s1.3 0 2.6-1.6 2-3.3 3.8-4.3 5.9-1.3 9.5-1.3 3.9 1.2 4.6 3.7.9 4.9 2.8 6.4 3.9-.1 5.1-2.7 2.9-8.8 4.6-10.6c1.8-1.8 3.5-3.2 4.1-5.7s-2.6-4.2-4.8-3.8zm-18.1-9.7c2.6.3 5.8.8 6.9 1.8s.7 1.5.3 2.1-.9.9-1.3 2.1-.7-.3-1.4-1.6-1.1-2.1-3-3.2-1.7-1.2-1.5-1.2zM12.1 29.5c-.8.3-2.9-.8-6.3-4.3S1.3 17.5 2.4 16c1.1-1.5 3.6-3 8.1-3.9 0 0 1.3-.3 3.3-.6s4.8.7 6.3 3.1.5 7-1.5 10.4c-2.2 3.5-5.7 4.2-6.5 4.5zm7 4.6c-.6.4-1.3 2-2.3 3.2-.9 1.2-.7 1.5-1.2 1.6-.5.1-.6-.7-.9-1.4-.3-.7-.8-3-.9-4.1s.9-1.1 1.7-.8c.8.3 3.1.3 4 .5s.3.6-.4 1zm29.8-7.6c-1.1 1.1-2.4 1.9-3.3 3.6s-2.7 6.2-3.4 8.6-1.4 3-2.6 2.9-1.8-2.8-2.1-5-.8-3.4-1.8-4.8-4.8-.4-10.5-.3-9.4-.8-10.4-1.1 1.6-1.4 3.4-2.7c1.8-1.3 2.1-2.4 3.6-8s-1.2-7.4-2.4-8-.4-1.1.1-1c3.1.5 8.7.4 11.8 3.8s3.9 7.3 6.8 8.9 7.5-.6 9-1.1 1.8-.4 2.7.5.1 2.6-.9 3.7zm-34.7-13c-1.2-.3-2.6.9-3.3 2s.7 2.9 2.5 3c1.8.1 3-2 3-3-.1-.8-.7-1.6-2.2-2zm-.2 3.9c-.7.4-1 .1-1.9-.5-.9-.6 0-1.9.9-2.2 1.3-.5 2 0 2.3.5s-.6 1.9-1.3 2.2zm11-2.1c-.5-.1-1 .5-.8 1.3s1.3.5 1.6.2c.3-.4.3-1.4-.8-1.5zm4.8 1.8c-.5-.2-1.6.5-1.8 1.1-.2.5 0 1.5 1.1 1.7 1.1.2 1.8-1.2 1.7-1.7-.1-.6-.7-1-1-1.1zm-5.7 4.8c-.6-.2-1.4.7-1.2 1.6s1.2.8 1.8.4.4-1.7-.6-2zm-3.1 6c-.4-.1-1.7.5-1 1.4.7.8 1.2.5 1.9.1s-.2-1.2-.9-1.5zm5.3.3c-.5-.1-1.6.6-1 1.2.5.6.5.6 1.4.3.9-.4.7-1.3-.4-1.5zm2.6-4.1c-.7-.1-1.3.3-1.3 1 0 .8 1 1 1.7.8.7-.2.8-1.6-.4-1.8zm6.4-.4c-.6-.2-1.8.5-1.4 1.3.4.7 1.3.5 1.7.4.4-.2.5-1.5-.3-1.7zm-1.1 3.8c-.4 0-.2.5-.6.8s-1.3.5-.8 1 1.1.8 1.7.5c.6-.2 1.5-2.4-.3-2.3zm4.1-1.6c-.3 0-1 .8-.6 1.1.4.3 1.3 0 1.5-.3.2-.2-.2-.8-.9-.8zm.2 4.9c-.4.3 0 .8.8 1.5s1.5 1.5 1.9 1.1c.4-.4-1-1.6-1.5-2.3-.3-.5-.8-.7-1.2-.3zm3.8-4.5c-1-.1-1.8.4-1.5.9s.9.3 2.3.3 2.3-.4 1.9-.7c-.5-.4-1.6-.4-2.7-.5z"/></svg>