<svg id="Capa_1" xmlns="http://www.w3.org/2000/svg" viewBox="0 0 118 118"><style>.st0{fill:#1fba0a}</style><path class="st0" d="M117.8 5.3c-.8-.6-1.2-1.6-3-1.2-.3 0-.3.3-.7.2-5.9 3.2-10.2 7.9-13.8 13.3-1 1.2-1.9 2.5-3 3.7-.5.6-1.2 1.1-1.7 1.7-.5.6-.9 1.4-1.5 2-.2.3-.5.4-.7.7-.8 1-1.7 1.8-2.5 2.7-1.1 1.2-2.3 2.3-3.5 3.5-4.6 4.6-8.2 10.1-12.8 14.6-4.6 4.6-9.4 8.8-14.1 13.3-2.4-2.5-5.1-4.6-7.4-7.2.5-3.3-.9-6.8-1.2-10.1 0-3-.1-6 .2-8.6-.9-2.2-1.6-4.7-2.2-7.2-3.8-4.6-8-8.8-12.1-13.1-.8-1-2-1.4-2.7-2.5-.9-.9-2.1-1.3-2.7-2.5-1.4-.3-2.1-1.4-3.7-1.5-1.8.6-2.8 2-4.2 3-1 1.4-2.5 2.3-3.5 3.7-2.8 2-4.9 4.6-7.2 7.2-2.4 2.4-5.3 4.3-7.4 6.9-.7.5-1.3 1-1.7 1.7-.7.6-1.5 1-1.7 2-.9.4-1.2 1.3-1.7 2-.4.8-1.4 1.1-1.2 2.5.3 1.8 1.4 2.7 2.5 3.7.7 1.3 1.9 2.2 2.7 3.5 5 5.3 10.3 10.3 15.6 15.3 1.1 1.1 1.8 2.5 3.5 3 2.2.2 3.9-.2 5.9-.2.7-.5 1.6-.7 2.5-1 .6-.7 1.7-.7 2.5-1.2 4.5-.5 8-2.1 13.1-2 1.3 1.2 2.5 2.6 3.7 3.9.9.4 1.1 1.5 2 2 .4.9 1.5 1.1 1.7 2.2C50 70.7 44.3 75.9 39 81.6c-1.6 1.2-2.6 2.8-4 4.2-.6.7-1.2 1.5-2 2-.2 1.2-1.6 1.2-1.7 2.5-1.6 1.2-2.7 2.8-4 4.2-1.6 1.2-3 2.6-4 4.4-.7.7-2 .8-2.5 1.7v.5c-.5.8-.5 2.1-.5 3.5.6 1.7 1.4 3.1 2.7 3.9 1 1.3 2.1 2.5 3.5 3.5 1 .2 1.6.9 2.7 1h3c1.3-.7 2.7-1.2 3.5-2.5.8-.2 1-.9 1.5-1.5.4-.5 1-1 1.2-1.7 1.9-2 3.6-4.3 5.4-6.4.7-.3 1-1 1.5-1.5s1.2-.8 1.5-1.5c.9-1.1 1.9-2.1 2.7-3.2 1-.9 1.9-2.1 2.7-3.2 1.6-.5 1.9-2.2 3.2-3 .8-1.1.9-2.9 2.2-3.5.7.5 1.4.9 2.2 1.2.2 1 1.2 1.1 1.7 1.7 1.5.8 2.3 2.3 4.4 2.5 3.9-1.5 5.6-5.3 8.1-8.1.8 0 1 .8 1.5 1.2 1.5 1.4 3 2.7 4.2 4.2 1.9 2.9 3.5 6 5.4 8.9.5 1.8 1.7 3.1 2.2 4.9.6.6.9 1.6 1.5 2.2.1 1.1 1.1 1.4 1.2 2.5 1.1 1.2 2.4 2.4 3.5 3.7 2.4 1.3 4.2 3.2 7.2 3.9 1.6.1 2.8-.2 3.7-.7 1.2-.2 1.5.8 2.5.2 2.2-1.4 3.6-3.5 4.2-6.4.2-2.3-.6-3.7-.7-5.7-.9-.9-1.4-2.2-2.2-3.2-.7-1.2-2.2-1.6-3-2.7-1.6-2.1-3.8-3.6-6.2-4.9-2.1-1.6-4.6-2.8-6.9-4.2-1.3-.6-2.4-1.4-3.7-2-1.4-.5-2.3-1.5-3.9-1.7-.9-1.1-1.9-2.2-3.2-3-.7-1.4-2.4-1.7-3-3.2 6.6-9.3 13.2-18.7 19-28.9.9-1.4 1.9-2.8 2.7-4 .3-.4.3-.6.5-1 0-.1.4-.2.5-.2.1-.2.1-.6.2-.7.1-.2.3-.5.5-.7.2-.4.3-.7.5-1 0-.1.4-.1.5-.2.1-.2.1-.5.2-.7.4-.8.8-1.7 1.2-2.5 2-3.9 4.2-7.9 6.2-11.9 1.4-2.7 2.9-5.2 3.9-8.1.9-.9 1.5-2.2 2.2-3.2 0-.3 0-.7.2-.7.5-2.6 1.9-4.6 1.2-7.2zM47.2 42.4c.9.7-.8.8 0 0zM29.6 54.9c-1.2.1-1.7-.6-3-.5-1.9-1.1-3-2.9-4.7-4.2-1.4-1.4-3.1-2.6-4.4-4.2-2.3-2.1-4.5-4.3-6.7-6.7-.7-.7-1.7-1.1-2-2.2.1-1.4.9-2.2.7-4 2.2.2 3.9.9 6.2 1 1.1.3 1.6 1.2 2.2 2 .9.5 1.3 1.5 2.2 2 1.1 1.6 2.5 3 4 4.2 2.4 3 6.3 4.6 7.9 8.4 0 2.2-1 3.4-2.4 4.2zM39 44.3c-.8.6-1.9.9-3 1.2-1.3-.2-1.9-1.3-2.7-2-.9-.6-1.6-1.3-2.5-2-4.9-4.2-9.3-8.8-13.3-13.8V26c.3-.6-.7-1 0-1.2-.2-.8.5-.4.7-.2h1.2c.6-.3 1.4-.4 2-.7h.6c5.6 5.8 11 11.7 16.5 17.5 0 1.1.7 1.6.5 2.9zm6.9-9.3c-1.8.3-3.7.5-5.2 1-.8.2-.3-.8-1-.7-.1-.5-.7-.5-.7-1-.7-.5-1.3-1-1.7-1.7-1.4-.9-2-2.6-3.5-3.5-2.2-2.5-4.6-4.6-6.9-6.9.4-1.8-.4-4.1-.7-5.9.6-.7 1-1.4 2-1.7 2.1.8 3.7 2.1 5.7 3 .2.6.7 1 .7 1.7 3.8 3.8 7.9 7.4 11.6 11.4-.1 1.2.3 3.2-.3 4.3zm.8 16.5c-.2-.8.8-.3.7-1 .3.1.2.6.2 1h-.9zm-13.6 51.6c-.5-.3-.9-.7-1.2-1.2-1-.6-1.4-1.9-2.5-2.5-.1-.5.2-.7.2-1 .4-.1.4.2.7.2 1.1 1.9 2.4 3.7 3.9 5.2-.2.7-.9-.4-1.1-.7zm15.5-21c-2.2 3.4-5 6.2-7.4 9.4-.6.3-1.5.3-2 .7.2 1.4-.3 2.2-.7 3-1.2 0-1.4-1.1-3-.7-.3.1-.4.4-.7.5-.2 2.3 1.3 2.8 1.7 4.4-1.5-1.1-2.3-2.8-3.5-4.2 1-1.7 2.6-2.8 3.7-4.4 1.3-1.3 2.6-2.7 3.7-4.2.9-.5 1.3-1.5 2.2-2 .2-.4.6-.8 1-1 .4-.3.3-1 1-1 .5-.9 1.2-1.4 2-2 .6-.8 1.2-1.4 2-2 .1-.3.4-.4.5-.7 1-.1 1.3.7 2 1-.3 1.6-1.4 2.3-2.5 3.2zm3 3.5c0 .2 0 .3-.2.2 0 .2 0 .3-.2.2 0 .3-.4.2 0 0 0-.2 0-.3.2-.2 0-.1 0-.3.2-.2.1-.6.2-1.3 1-1.2 0 .7-.6.8-1 1.2zm53.1 17.7c-1.1 0-.6-1.6-1-2.2.9.1 1.5 1.5 1 2.2zm-3.2-4.2c0 .5-1 .1-1.5.2-.2-.6-.7-1-.7-1.7.8.4 1.5 1 2.2 1.5zm-3.2 7.4c-.4-.2-.8-.4-.7-1 .6 0 .7.4.7 1zm12.3-90.8c-.7 1.3-1.8 2.2-2.2 3.7-1.1.9-1.5 2.4-2.2 3.7-.8 1.1-1.5 2.5-1.7 4.2-.7.8-1.4 1.7-2.2 2.5-.7 3.1-2.6 5-3.7 7.7-1.3 2.5-2.5 5.1-4.2 7.2-2.9 4.5-6.7 8.3-9.4 13.1-3 4.5-6.3 8.7-9.6 12.8-3.1 4.3-6.5 8.5-9.4 13.1-1.2-.4-1.8-1.3-3-1.7-.7-.8-1.7-1.5-2.5-2.2-1.4-1.7-3.2-2.9-4.4-4.7.3-1.3 1.4-1.7 2-2.7 1-.5 1.2-1.8 2.2-2.2 1.4-1.6 2.9-3.1 4.4-4.4.9-.6 1.5-1.4 2.2-2.2.7-.8 1.7-1.3 2.2-2.2 1.8-1.1 3-2.9 4.7-4.2 1.2-2.6 3.5-4.1 5.2-6.2 1.8-1.9 3.5-3.9 5.2-5.9 1.5-2.2 3.2-4.4 4.9-6.4.8-1.1 1.8-2 2.5-3.2 1.2-.6 1.6-2 3-2.5-.1-1 1.1-.8 1-1.7.6-.3.8-1 1.2-1.5.7-1 1.6-1.9 2.5-2.7 1.5-2 3.1-3.8 4.4-5.9 3.3-2.7 6.1-5.9 9.1-8.9.4-.1.5.2.5.5-1.1.5-1.6 2-2.7 2.9zM65.9 70.3c.4-.2 0-.3 0 0zm-.2.2c.2 0 .2-.1.2-.2-.2-.1-.2 0-.2.2zm0 0c-.4.2 0 .3 0 0z" id="_x30_606-turner-knife"/></svg>