<svg id="Capa_1" xmlns="http://www.w3.org/2000/svg" viewBox="0 0 100 100"><style>.st0{fill:#1fba0a}</style><path class="st0" d="M97.7 41c-1.2-1.9-3-3.2-4.3-4.9-2.3-.6-4.2-1.6-6.6-2-2.6-.3-5.5-.4-8-.9h-5.2c.5-.9 1.4-1.4 1.7-2.6 1-.5 1-2 2-2.6-.2-1.2.2-1.9.3-2.9 1-1 1.4-2.4 2.3-3.4.6-1.4 2-2 2.3-3.7 0-3.7-.2-7.7.6-10.6-.6-1.1-1.2-2.2-1.1-4-1.8-.9-2.6-2.8-4.6-3.4h-3.4c-3.3 1.2-4.5 4.6-8 5.7-3.7 7.3-10.1 12-16 17.2-2.8 2.8-5.5 5.5-8.6 8-1.3 1.5-2.9 2.6-4.6 3.7-1.7 1.2-3.2 2.6-5.2 3.4 0-1.9-1.2-2.6-2-3.7-3.4-.9-6.4-2.2-10.6-2.3-2.6 0-4.7.5-7.4.3-.4.4-1.3.5-2 .6-.4.5-1 .7-1.7.9-.5.8-1.2 1.5-2 2C3 40.9 3.2 48.4 2 54.7c-.3 11.3-.3 23-.3 34.7.5.7.6 1.7.9 2.6.6.6.8 1.7 1.4 2.3 1.7.7 3.6 1.3 6 1.4 3.3 1.8 8.7 1.4 13.8 1.4 1.3-.4 2.1-1.1 3.4-1.4 1.8.2 2.1-1.2 3.2-1.7.3 1.5 1.4 2.1 2.3 2.9 1.1-1.5 2.9.6 4.3.6 1.2.8 3.4.6 4.9 1.1 5.6.5 11.1 1.2 16.9 1.4 2.5-.5 5.7-.2 8.6-.3 4.1-.6 7.7-1.6 11.5-2.6.6-.5 1.2-.9 2-1.1 2.3-2.3 4.4-5.2 4.9-9.5.3-2.6-.2-5.4 0-8.6 1.5-1.4 3.4-2.5 4.9-4 .2-1 .9-1.6 1.4-2.3.8-4.4 1.5-9 2-13.8 1.9-2.2 3.6-4.6 4.3-8-.1-3.1 0-6.4-.7-8.8zM9.2 45.8c.1-1-.2-2.3.3-2.9-.1-2.1.6-3.4 1.1-4.9.3 0 .2.3.3.6-.6 3.2-1.4 6.2-1.7 9.7-.6-.2-.4-2.1 0-2.5zm17.2-.8c-.5.5-.6 1.5-1.1 2-.8 4.3-1.4 8.7-2 13.2 0 2.7-.2 3.8 0 6.3-.7 4 .3 8.1.3 12.3.6 1.5 1.1 3.1 2 4.3.2 2.3.8 4.3 1.1 6.6-3.1.2-7.3.6-10.3 0 0-.9.7-2.1 0-2.9-2.1-.4-2.1 1.1-3.7 1.1.4-1.8 1.6-2.8 2-4.6.7-1.1 2-3.1 1.4-4.6-1.2-.5-2.7.9-3.4 1.7-1.3.3-1.7 2.8-2.9 2.3v-4.3c.6-.7.7-2 1.4-2.6 0-1.2 1.1-1.4 1.1-2.6.7-.6 1.7-.9 2-2 0-.7-.5-.9-.6-1.4-.1-.7-1.3-.3-1.4-.9-.9-.2-1 .3-1.7.3-.4-.2-.7 1.1-.9.3 1.4-10.1-.6-23.5 3.4-30.9.2-.1.3-.3.6-.3.2-.1.3-.3.6-.3 1.3.5 2.5 0 3.4.3.8.2 1.5.5 2 .9 3.1-.1 4.5 1.4 7.4 1.4-.4 1.3-.5 2.9-.7 4.4zm65 5.7c-.8 1.2-1.6 2.4-2.6 3.4-.4 1-.6 2.1-1.1 2.9-.3 4.6-.8 9.1-2 12.9-1.6 1.3-3.3 2.6-5.2 3.7-.3 1.2-1 2.1-.9 3.7-.1 1.1.6 1.5.9 2.3-.5 3.5-.6 7.4-2.3 9.7-1.7 1.6-4.6 2-7.4 2.6-1.2-.7-3-.8-4.9-.9-1.1.2.3-1.5-.9-1.7-2.1-.2-1.8 1.8-3.4 2-1.6.1-2.4-.5-4-.3 0-1.8 1.6-2 1.4-4-.1-.4-.5-.5-.6-.9-2.9.1-3.9 2-5.4 3.4-.9-.6-2.7-.2-4-.3.1-1.2 1-2.2.3-3.4-3.5-.3-3.7 2.6-6 3.4.2-1.5 1.8-3.9 0-4.9-1.6 0-1.3 1.7-2.3 1.9-.7.6-.8 1.9-2 2-.6-.5-1.2-1.1-2-1.4.9-1.8 2.2-3.4 3.2-5.2.7-1.5 2.7-3.7 1.4-5.4-2.6-.1-3.6 1.3-4.6 2.6-.7.5-1.3 1-1.7 1.7-.6.5-.7 1.6-1.7 1.7-.7-2.6 1.9-3.7 2.3-6 .9-.5.8-2.1 1.7-2.6.2-1.2 1.2-2 .6-3.2-2.6-.2-3 1.8-4.6 2.6-.2.9-1 1.3-1.4 2-.6.5-.7 1.6-1.7 1.7v-5.4c.9-2.2 2.1-4.3 3.4-6 .9-2.2 2.9-3.2 3.2-6-1-.5-2.4.8-3.4 1.1-1.1.7-1.7 1.7-3.2 2 .5-1.1.2-2.8.3-4.3.9-1 1.7-2.1 2.6-3.2.4-.6.8-1.1 1.1-1.7.8-.1 1.2-.5 1.1-1.4-.3-.7-1.3-.6-2.3-.6-.6.3-.8 1.1-1.7 1.1.4-2.7 1-5.2 1.4-7.7 5.7-3.2 10.8-7 15.5-11.2.3-1.1 1.2-1.7 1.4-2.9 2.9-1.9 5.5-4 8-6.3 2.8-2 5.2-4.3 7.5-6.9.3-.2.8-.4 1.4-.3-.2-.9.3-1 .3-1.7 2-1.5 3.1-4 5.2-5.4-.1-1 .1-1.6.3-2.3.5-.3.7-.8 1.7-.6.3-1.4-.7-2.3 0-3.2.5-.1.5.3.9.3 1.2 1.6 1.8 3.8 2 6.3.2 1 .8 1.5.9 2.6-.7 4.7-3.2 7.7-5.4 10.9-.9 1.9-2.1 3.5-3.4 4.9-.8 1.9-2.7 2.7-3.7 4.3-1.3.5-2.3 1.3-3.4 2-1.2.5-2.4 1-2.6 2.6-.3 1.9 1.4 1.9 2.3 2.6 2.2.2 3.7-.3 5.2-.9 3.8.6 8.6.2 12.9.3 2 .3 4.1.5 6.3.6.4.4 1.3.5 2 .6.4.4 1 .5 1.7.6.5.8 1.4 1.3 2 2-.4 2.5-.1 5.2-.6 7.2zM18.9 41c-2.6-.5-5-.2-6.6 1.1-.5 1.9-1.1 3.7-1.1 6 .1.7.5 1.1.3 2 .6.6.8 1.7 1.4 2.3.6.6 1.5 1 2.3 1.4 3.5 0 5.4-1.5 6.6-3.7-.1-1 .1-1.6.3-2.3-.2-.7-.4-1.5-.3-2.6-.7-.5-.4-1.9-1.1-2.3-.4-.8-1.2-1.2-1.8-1.9zm-2 7.4c-.8-.3-.5-1.8-.6-2.9.8.4.9 2.4.6 2.9z" id="thumbs-up_1_"/></svg>