<svg xmlns="http://www.w3.org/2000/svg" viewBox="0 0 100 100" width="100" height="100"><style>tspan{white-space:pre}.shp0{fill:#1fba0a}</style><g id="thumbs-up_1_"><g id="Layer"><path id="Layer" class="shp0" d="M98.4 49.8c-.7 3.4-2.4 5.8-4.3 8-.5 4.8-1.2 9.4-2 13.8-.5.7-1.2 1.3-1.4 2.3-1.5 1.5-3.4 2.6-4.9 4-.2 3.2.3 6 0 8.6-.5 4.3-2.6 7.2-4.9 9.5-.8.2-1.4.6-2 1.1-3.8 1-7.4 2-11.5 2.6-2.9.1-6.1-.2-8.6.3-5.8-.2-11.3-.9-16.9-1.4-1.5-.5-3.7-.3-4.9-1.1-1.4 0-3.2-2.1-4.3-.6-.9-.8-2-1.4-2.3-2.9-1.1.5-1.4 1.9-3.2 1.7-1.3.3-2.1 1-3.4 1.4-5.1 0-10.5.4-13.8-1.4-2.4-.1-4.3-.7-6-1.4-.6-.6-.8-1.7-1.4-2.3-.3-.9-.4-1.9-.9-2.6 0-11.7 0-23.4.3-34.7 1.2-6.3 1-13.8 3.6-18.9.8-.5 1.5-1.2 2-2 .7-.2 1.3-.4 1.7-.9.7-.1 1.6-.2 2-.6 2.7.2 4.8-.3 7.4-.3 4.2.1 7.2 1.4 10.6 2.3.8 1.1 2 1.8 2 3.7 2-.8 3.5-2.2 5.2-3.4 1.7-1.1 3.3-2.2 4.6-3.7 3.1-2.5 5.8-5.2 8.6-8 5.9-5.2 12.3-9.9 16-17.2 3.5-1.1 4.7-4.5 8-5.7h3.4c2 .6 2.8 2.5 4.6 3.4-.1 1.8.5 2.9 1.1 4-.8 2.9-.6 6.9-.6 10.6-.3 1.7-1.7 2.3-2.3 3.7-.9 1-1.3 2.4-2.3 3.4-.1 1-.5 1.7-.3 2.9-1 .6-1 2.1-2 2.6-.3 1.2-1.2 1.7-1.7 2.6h5.2c2.5.5 5.4.6 8 .9 2.4.4 4.3 1.4 6.6 2 1.3 1.7 3.1 3 4.3 4.9.7 2.4.6 5.7.7 8.8zM9.2 48.3c.3-3.5 1.1-6.5 1.7-9.7-.1-.3 0-.6-.3-.6-.5 1.5-1.2 2.8-1.1 4.9-.5.6-.2 1.9-.3 2.9-.4.4-.6 2.3 0 2.5zm17.9-7.7c-2.9 0-4.3-1.5-7.4-1.4-.5-.4-1.2-.7-2-.9-.9-.3-2.1.2-3.4-.3-.3 0-.4.2-.6.3-.3 0-.4.2-.6.3-4 7.4-2 20.8-3.4 30.9.2.8.5-.5.9-.3.7 0 .8-.5 1.7-.3.1.6 1.3.2 1.4.9.1.5.6.7.6 1.4-.3 1.1-1.3 1.4-2 2 0 1.2-1.1 1.4-1.1 2.6-.7.6-.8 1.9-1.4 2.6v4.3c1.2.5 1.6-2 2.9-2.3.7-.8 2.2-2.2 3.4-1.7.6 1.5-.7 3.5-1.4 4.6-.4 1.8-1.6 2.8-2 4.6 1.6 0 1.6-1.5 3.7-1.1.7.8 0 2 0 2.9 3 .6 7.2.2 10.3 0-.3-2.3-.9-4.3-1.1-6.6-.9-1.2-1.4-2.8-2-4.3 0-4.2-1-8.3-.3-12.3-.2-2.5 0-3.6 0-6.3.6-4.5 1.2-8.9 2-13.2.5-.5.6-1.5 1.1-2 .2-1.5.3-3.1.7-4.4zM92 43.5c-.6-.7-1.5-1.2-2-2-.7-.1-1.3-.2-1.7-.6-.7-.1-1.6-.2-2-.6-2.2-.1-4.3-.3-6.3-.6-4.3-.1-9.1.3-12.9-.3-1.5.6-3 1.1-5.2.9-.9-.7-2.6-.7-2.3-2.6.2-1.6 1.4-2.1 2.6-2.6 1.1-.7 2.1-1.5 3.4-2 1-1.6 2.9-2.4 3.7-4.3 1.3-1.4 2.5-3 3.4-4.9 2.2-3.2 4.7-6.2 5.4-10.9-.1-1.1-.7-1.6-.9-2.6-.2-2.5-.8-4.7-2-6.3-.4 0-.4-.4-.9-.3-.7.9.3 1.8 0 3.2-1-.2-1.2.3-1.7.6-.2.7-.4 1.3-.3 2.3-2.1 1.4-3.2 3.9-5.2 5.4 0 .7-.5.8-.3 1.7-.6-.1-1.1.1-1.4.3-2.3 2.6-4.7 4.9-7.5 6.9-2.5 2.3-5.1 4.4-8 6.3-.2 1.2-1.1 1.8-1.4 2.9-4.7 4.2-9.8 8-15.5 11.2-.4 2.5-1 5-1.4 7.7.9 0 1.1-.8 1.7-1.1 1 0 2-.1 2.3.6.1.9-.3 1.3-1.1 1.4-.3.6-.7 1.1-1.1 1.7-.9 1.1-1.7 2.2-2.6 3.2-.1 1.5.2 3.2-.3 4.3 1.5-.3 2.1-1.3 3.2-2 1-.3 2.4-1.6 3.4-1.1-.3 2.8-2.3 3.8-3.2 6-1.3 1.7-2.5 3.8-3.4 6v5.4c1-.1 1.1-1.2 1.7-1.7.4-.7 1.2-1.1 1.4-2 1.6-.8 2-2.8 4.6-2.6.6 1.2-.4 2-.6 3.2-.9.5-.8 2.1-1.7 2.6-.4 2.3-3 3.4-2.3 6 1-.1 1.1-1.2 1.7-1.7.4-.7 1-1.2 1.7-1.7 1-1.3 2-2.7 4.6-2.6 1.3 1.7-.7 3.9-1.4 5.4-1 1.8-2.3 3.4-3.2 5.2.8.3 1.4.9 2 1.4 1.2-.1 1.3-1.4 2-2 1-.2.7-1.9 2.3-1.9 1.8 1 .2 3.4 0 4.9 2.3-.8 2.5-3.7 6-3.4.7 1.2-.2 2.2-.3 3.4 1.3.1 3.1-.3 4 .3 1.5-1.4 2.5-3.3 5.4-3.4.1.4.5.5.6.9.2 2-1.4 2.2-1.4 4 1.6-.2 2.4.4 4 .3 1.6-.2 1.3-2.2 3.4-2 1.2.2-.2 1.9.9 1.7 1.9.1 3.7.2 4.9.9 2.8-.6 5.7-1 7.4-2.6 1.7-2.3 1.8-6.2 2.3-9.7-.3-.8-1-1.2-.9-2.3-.1-1.6.6-2.5.9-3.7 1.9-1.1 3.6-2.4 5.2-3.7 1.2-3.8 1.7-8.3 2-12.9.5-.8.7-1.9 1.1-2.9 1-1 1.8-2.2 2.6-3.4.5-2 .2-4.7.6-7.2zm-71.3-.6c.7.4.4 1.8 1.1 2.3-.1 1.1.1 1.9.3 2.6-.2.7-.4 1.3-.3 2.3-1.2 2.2-3.1 3.7-6.6 3.7-.8-.4-1.7-.8-2.3-1.4-.6-.6-.8-1.7-1.4-2.3.2-.9-.2-1.3-.3-2 0-2.3.6-4.1 1.1-6 1.6-1.3 4-1.6 6.6-1.1.6.7 1.4 1.1 1.8 1.9zm-4.4 2.6c.1 1.1-.2 2.6.6 2.9.3-.5.2-2.5-.6-2.9z"/></g></g></svg>