<svg id="Слой_1" xmlns="http://www.w3.org/2000/svg" xmlns:xlink="http://www.w3.org/1999/xlink" viewBox="0 0 580 261"><style>.st0{fill:url(#SVGID_1_)}.st1{clip-path:url(#SVGID_3_)}.st2{fill:none}.st2,.st3{stroke:#000}</style><g id="Слой_x0020_1"><g id="_612943824"><radialGradient id="SVGID_1_" cx="6661.478" cy="25648.943" r="1487.54" gradientTransform="matrix(-.02413 .0333 .03314 .02428 -500.088 -716.289)" gradientUnits="userSpaceOnUse"><stop offset="0" stop-color="#ffe93d"/><stop offset="1" stop-color="#fc1f02"/></radialGradient><path class="st0" d="M180.7 45.5L165 53l-16.6-1.1-11.7 13-15.6 5.3-5.9 16.4-12.4 11 .9 17.3-7.3 14.9 7.4 15.8-1 16.5 13 11.7 5.3 15.7 16.4 5.8 10.9 12.5 17.4-1 14.9 7.4 15.7-7.5 16.6 1.1 11.6-13 15.7-5.3 5.8-16.5 12.5-10.9-.9-17.4 7.3-14.9-7.4-15.7 1-16.5-13-11.7-5.3-15.7-16.4-5.8L213 51.9l-17.4 1z"/><defs><path id="SVGID_2_" d="M180.7 45.5L165 53l-16.6-1.1-11.7 13-15.6 5.3-5.9 16.4-12.4 11 .9 17.3-7.3 14.9 7.4 15.8-1 16.5 13 11.7 5.3 15.7 16.4 5.8 10.9 12.5 17.4-1 14.9 7.4 15.7-7.5 16.6 1.1 11.6-13 15.7-5.3 5.8-16.5 12.5-10.9-.9-17.4 7.3-14.9-7.4-15.7 1-16.5-13-11.7-5.3-15.7-16.4-5.8L213 51.9l-17.4 1z"/></defs><clipPath id="SVGID_3_"><use xlink:href="#SVGID_2_" overflow="visible"/></clipPath><g class="st1"><path id="_x31_" d="M140.8 164.2s5.6-17.2 7.2-23.1c1.6-5.9 3.4-11.3 3.4-11.3s-13.3-.5-18.6-10.9c-5.4-10.4-1.3-23.1-1.3-23.1s-.5-1.1-1-2.7L117.6 109l12.7-16.5c-.5-1.5-.9-3.5-1.1-5.6l-8.7 3.4 8.7-3.6c-.3-4.4.9-9.1 6.2-11.7 3.7-1.7 7.1-2.3 10.1-2.3l7.5-9.8 1.4.7-7.4 9.1c5.2.4 8.7 2.5 8.7 2.5s.4-.1 1.1-.1l16.3-6.7s.5 1.4.6 1.4l-14.1 5.4c4.5.2 11.9 1.2 16.6 4.8 7.2 5.6 9 10.4 9.9 12.1.9 1.7 4 5.2 3.8 10.8-.2 5.1-1.3 7.4-1.3 10.3.7-.3 1.3-.7 1.6-.9.7-.6 1.5-1.2 1.5-1.2s-1 1.5-1.7 1.9 2.1-1.1 2.7-1.7c.5-.5.9-1 .9-1s-.7 1.7-1.8 2.2c-1.1.6 2.9-1.9 2.9-1.9s-2.1 2.1-4.4 2.8c-.6.2-1.1.3-1.6.4v.3c.3 3.6 2.5 7.7 2.8 8.8.3 1.1-2.9 1.5-3.6 1.7s-1.3 1.3-1.1 2.5c.2 1.2.4 2.6-1.1 2.6H184s1.7.7 1.3 1.9c-.3 1.3-.7.7-1.4 1.5-.6.8-.9 3.8-1.3 5-.4 1.2-2.7 1.9-6.6-.8s-5.9-4.6-5.9-4.6-5.2 6.9-5.7 13.6c-.5 6.7.7 13.7.7 13.7s.2 1 .4 3.1c1.9 3.2 4.2 7.3 6 10 2.2 3.4 10.3 16.7 13.8 27.7 2.7-7.4 4.8-15.5 4.8-15.5l.7.6 4-11.1s-1.3-3.5-.2-7.8c1-4.4 4-14.8 5.4-16.2 0 0 .3 1.3.1 3.2-.2 1.9-1.6 6.5-1.6 6.5s-.9 2.5 1.3 4.3c2.3 1.7 5.1-.3 7-1.1 1.9-.9 9.6-6 9.6-6s3.1-5.8 4.3-7.4c1.2-1.7 3.8-3.6 3.8-3.6s-.5 1-1.2 2.1-2.8 5-2.8 5 2.5-1.7 4.2-3.2c1.7-1.5 3.5-1.8 3.5-1.8s.1.1-.9.7-4.4 4-4.4 4 2.3-1.5 3-1.9c.7-.3 2.5-1 2.5-1s-5.7 5-11 9.3c-5.3 4.4-11.7 10.3-11.7 10.3s-1 2-2.6 4.9c-1.5 2.8-6 18.8-6 18.8 3.6 21.2 16.1 30.6 14 63.2l-52-5.8c-4.8-.1-9.8-.4-12.9-1.5-2.1-.7-3.4-1.8-3.2-3.4.7-7.2-4.9-25.7-6.3-44.3-1.6-18.1 4.1-37.9 4.1-37.9zm80.7-22.3c-.9.9-3.2 1.9-5.1 1.5-.9.1-1.7-.1-2.5-.7-3.1-2.1-1.6-4.6.2-4.6.9 0 1.6.3 2.1.7.2.1.4.2.6.4-.4-.7-1-2.5-.1-4.8 1.3-3.1 3.7-5.2 6.2-3.1.9.7 1 2 .9 3.4.3.2.5.5.7.7 1.4 2.3-3 6.5-3 6.5z"/></g><path class="st2" d="M180.7 45.5L165 53l-16.6-1.1-11.7 13-15.6 5.3-5.9 16.4-12.4 11 .9 17.3-7.3 14.9 7.4 15.8-1 16.5 13 11.7 5.3 15.7 16.4 5.8 10.9 12.5 17.4-1 14.9 7.4 15.7-7.5 16.6 1.1 11.6-13 15.7-5.3 5.8-16.5 12.5-10.9-.9-17.4 7.3-14.9-7.4-15.7 1-16.5-13-11.7-5.3-15.7-16.4-5.8L213 51.9l-17.4 1zm32.3 6.4l-64.6 155.9m32.3-162.3v168.7M148.4 51.9L213 207.8M121.1 70.2l119.2 119.3M102.8 97.6l155.8 64.5M96.4 129.8H265m-162.2 32.3l155.8-64.5m-137.5 91.9L240.3 70.2"/><path class="st3" d="M174.2 192.7c2-4.2 5.5-6.6 3.4-11.6s-3.3-10.7-3.5-13.2c-.2-2.5-5-1.1-5.4 2.1-.4 3.2-1.3 5.9-1.8 7.4s-1.4 7 0 9.2c1.5 2.2 7.3 6.1 7.3 6.1z"/><path class="st3" d="M176.6 137.3l-.3 1.2-8.7 38 2.5.4 8-38z"/><path d="M173.9 169.8c.4-.1 1.5-.5 1.9 1.1.5 1.7-1.2 2.7-1.2 2.7s1.2-.6 1.5-.5c.3.1 1.5 1.3 1.1 2.7-.5 1.4-1.9 1.5-1.5 1.3.4-.1-4.2-1-4.2-1l2.4-6.3z"/></g><path d="M298.9 123c0-5.7 1.1-11.5 3.4-17.6S308 92.8 312.5 86h11.9l8.5 41.7L344.4 86h11l7.7 52.7h-11l-6.1-40-11.2 40h-10.4L314.6 92c-3.1 7.7-4.6 16.5-4.6 26.3 0 6.6 1.1 13.4 3.4 20.5h-11.8c-1.9-5.4-2.7-10.6-2.7-15.8z"/><path id="_x31__1_" d="M367.4 118.1c0-4.6 1.9-9.6 5.7-15.1h10.6c-2.2 4.1-3.8 7.6-4.6 10.4-.9 2.9-1.3 5.8-1.3 8.7 0 4.9.6 9.1 1.8 12.6l17-31.8h11.2v35.7h-10.2v-28.9l-15.8 28.9h-5.2c0-1-.3-2.1-.9-3.3-.6-1.1-1.4-2.2-2.3-3.3s-1.8-2.4-2.7-3.6c-.9-1.3-1.7-2.8-2.3-4.6-.7-1.8-1-3.7-1-5.7z"/><path id="_x32_" d="M414.5 138.7V103h10.2v16.2h4.5c.3-2.2 1-4.3 2.1-6.3 1-2 2.4-3.8 4-5.4 1.7-1.6 3.6-2.9 5.9-3.8 2.3-1 4.8-1.4 7.4-1.4 3 0 5.8.6 8.3 1.8 2.5 1.2 4.6 2.8 6.2 4.8s2.9 4.1 3.7 6.5c.9 2.4 1.4 4.8 1.4 7.3 0 2.6-.5 4.9-1.3 6.9-.8 2.1-1.8 3.7-3.2 4.9-1.3 1.2-2.8 2.2-4.5 3-1.8.8-3.5 1.4-5.3 1.7-1.7.3-3.5.5-5.4.5-1.8 0-3.6-.1-5.2-.5-1.7-.2-3.4-.8-5.2-1.5-1.8-.8-3.3-1.8-4.6-2.9-1.3-1.2-2.4-2.8-3.2-4.6-.9-2-1.3-4.1-1.4-6.6h-4.2v15.3h-10.2v-.2zm25.1-15.3c0 4.1.8 7.2 2.4 9.3 1.6 2.1 3.8 3 6.5 3 2.8 0 4.9-1 6.5-3s2.4-5.2 2.4-9.3c0-2.1-.1-4.1-.4-6.1-.3-1.9-.7-3.7-1.4-5.5-.6-1.8-1.5-3.2-2.8-4.2s-2.7-1.6-4.4-1.6c-1.7 0-3.1.6-4.4 1.6-1.2 1-2.1 2.5-2.8 4.2-.6 1.8-1.1 3.6-1.4 5.5-.1 2-.2 4-.2 6.1z"/><path id="_x33_" d="M473.9 138.7V103h10.2v31.9h10.2V103h10.2v31.9h10.3V103H525v35.7z"/><path id="_x34_" d="M530.8 118.1c0-4.6 1.9-9.6 5.7-15.1h10.6c-2.2 4.1-3.8 7.6-4.6 10.4-.8 2.9-1.3 5.8-1.3 8.7 0 4.9.6 9.1 1.9 12.6L560 103h11.2v35.7H561v-28.9l-15.8 28.9H540c0-1-.3-2.1-.9-3.3-.6-1.1-1.4-2.2-2.3-3.3-.9-1.1-1.8-2.4-2.7-3.6-.9-1.3-1.7-2.8-2.3-4.6-.7-1.9-1-3.8-1-5.8z"/><path d="M310.1 175.4l2.4.3c-.3 1.7-1 3-2.1 3.9s-2.4 1.4-4 1.4c-2 0-3.6-.7-4.8-2-1.2-1.3-1.8-3.2-1.8-5.6 0-1.6.2-3 .7-4.1s1.3-2.1 2.4-2.6c1-.6 2.2-.9 3.4-.9 1.5 0 2.9.4 3.8 1.1 1 .8 1.7 2 2 3.4l-2.4.3c-.2-1-.6-1.7-1.2-2.2s-1.3-.7-2.1-.7c-1.3 0-2.3.5-3 1.3-.8.9-1.1 2.3-1.1 4.2 0 2 .3 3.4 1.1 4.2.7.9 1.7 1.3 2.9 1.3 1 0 1.8-.3 2.4-.9.8-.2 1.2-1.2 1.4-2.4z"/><path id="_x31__2_" d="M314.4 186.3l-.3-2.3c.6.1 1 .2 1.4.2.6 0 1-.1 1.3-.3s.6-.5.8-.7c.2-.3.4-.9.7-1.8.1-.2.1-.3.2-.6l-5.5-14.6h2.6l3 8.4c.3 1.1.7 2.2 1 3.4.3-1.1.6-2.2 1-3.3l3.1-8.5h2.4L321 181c-.6 1.5-1.1 2.6-1.4 3.3-.5.8-1 1.4-1.5 1.8-.6.3-1.2.6-2 .6-.5-.1-1.1-.2-1.7-.4z"/><path id="_x32__1_" d="M328.6 166.2h2.5v12.5h5.6v-12.5h2.4v12.5h5.7v-12.5h2.4v14.5h-18.6z"/><path id="_x33__1_" d="M351 166.2h2.4v11.1l6.9-11.1h2.6v14.5h-2.4v-11l-6.8 11H351z"/><path id="_x34__1_" d="M374.4 166.2h2.4v11.1l6.9-11.1h2.7v14.5h-2.5v-11l-6.8 11h-2.7z"/><path id="_x35__1_" d="M397.8 186.3v-20.1h2.2v1.9c.5-.7 1.1-1.3 1.8-1.7.6-.3 1.4-.5 2.4-.5 1.3 0 2.4.3 3.3.9 1 .6 1.7 1.5 2.1 2.7.5 1.1.7 2.5.7 3.8 0 1.5-.3 2.8-.8 4-.5 1.1-1.3 2.1-2.3 2.7-1 .6-2.1 1-3.2 1-.8 0-1.5-.2-2.2-.5-.6-.3-1.1-.8-1.5-1.3v7.1h-2.5zm2.3-12.8c0 1.9.3 3.3 1.1 4.1.7.9 1.7 1.3 2.8 1.3s2-.5 2.8-1.4c.7-.9 1.1-2.4 1.1-4.2s-.3-3.3-1.1-4.2c-.7-.9-1.7-1.4-2.7-1.4s-2 .5-2.8 1.5-1.2 2.5-1.2 4.3z"/><path id="_x36__1_" d="M412.5 173.5c0-2.7.7-4.7 2.2-6 1.3-1.1 2.8-1.6 4.5-1.6 2 0 3.7.6 4.9 2 1.3 1.3 1.9 3.1 1.9 5.4 0 1.9-.3 3.3-.9 4.4-.6 1-1.4 1.9-2.4 2.5-1.1.6-2.2.9-3.6.9-2 0-3.7-.7-4.9-2-1.1-1.3-1.7-3.2-1.7-5.6zm2.5 0c0 1.8.4 3.2 1.2 4.1s1.8 1.4 3 1.4c1.3 0 2.3-.5 3.1-1.4s1.2-2.4 1.2-4.2-.4-3.2-1.2-4.1c-.9-.9-1.8-1.4-3.1-1.4-1.2 0-2.2.5-3 1.4s-1.2 2.3-1.2 4.2z"/><path id="_x37__1_" d="M429.5 166.2H441v14.5h-2.5v-12.4H432v7.2c0 1.7-.1 2.8-.1 3.3-.1.5-.5 1-.9 1.4-.5.4-1.2.6-2.1.6-.6 0-1.3-.1-2-.1v-2.1h1.1c.5 0 .9-.1 1.1-.2.2-.1.3-.2.5-.5.1-.2.1-1 .1-2.2v-9.5h-.2z"/><path id="_x38__1_" d="M445.9 166.2h11.5v14.5h-2.5v-12.4h-6.5v7.2c0 1.7-.1 2.8-.2 3.3s-.4 1-.9 1.4-1.1.6-2.1.6c-.6 0-1.2-.1-2-.1v-2.1h1.1c.5 0 .9-.1 1.1-.2.2-.1.3-.2.4-.5s.1-1 .1-2.2v-9.5z"/><path id="_x39_" d="M474.8 166.2h2.5v14.5h-2.5v-14.5zm-13.7 0h2.5v5.7h3.1c2.1 0 3.6.4 4.7 1.2 1.1.7 1.7 1.8 1.7 3.2 0 1.3-.5 2.3-1.4 3.2s-2.4 1.3-4.4 1.3h-6.1v-14.6h-.1zm2.4 12.5h2.6c1.5 0 2.7-.2 3.3-.6.7-.4 1-1 1-1.8 0-.6-.3-1.2-.7-1.7-.5-.5-1.6-.7-3.3-.7h-2.9v4.8z"/></g></svg>