<svg id="Capa_1" xmlns="http://www.w3.org/2000/svg" viewBox="0 0 46.5 46.5"><style>.st0{fill:#1fba0a}</style><path class="st0" d="M14.5 41.7c-1.9-.6-3.5-2-5.1-3.6-2-2.1-4.5-3.7-6.8-5.6-1.7-1.3-3-2.6-2.5-5.3.5-2.8 0-5.8-.2-8.7-.2-2.5 1-4.1 3.1-4.9 3.7-1.3 7.4-2.4 11.2-3.6C19.6 8.4 25 6.8 30.4 5.1c1.6-.5 3-.5 4.5.5 2.8 1.9 5.8 3.7 8.8 5.3 1.9 1 2.5 2.4 2.3 4.4-.5 4.4-.6 8.8.3 13.2.4 1.9-.9 2.5-2.3 3-3.3 1.2-6.7 2.3-10 3.5-6.3 2.3-12.6 4.4-19.5 6.7zm1.3-29.3c2.3 1.8 4 3.3 5.7 4.6 7.1 5.4 6.1 4.4 6.4 12.7 0 1.4.3 2.7.5 4.4 1.8-.6 3.2-1.1 4.7-1.7.2-3.9.5-7.7.6-11.5 0-.9-.4-2.1-1.1-2.7-2.5-2.4-5.2-4.7-7.9-7-.5-.4-1.3-.8-1.9-.6-2.2.5-4.3 1.1-7 1.8zM4.7 15.9c2.9 3 5.6 5.7 8.3 8.4.4.3 1.2.5 1.7.4 2.8-1 5.5-2.1 8.7-3.3-3.2-2.5-6-4.8-8.8-7-.5-.4-1.3-.8-1.9-.7-2.7.6-5.3 1.4-8 2.2zm21.7-6.1c2.7 2.4 5 4.4 7.4 6.4.6.5 1.7.9 2.5.7 2.2-.5 4.3-1.4 7-2.3-2.9-2.5-5.6-4.2-8.5-5.7-1.7-.9-3.2-1-4.9-.4-.9.3-1.9.6-3.5 1.3zm-11.9 22c.3.2.5.3.6.3 3.2-1 6.5-2.1 9.7-3.2.3-.1.4-.9.9-2.1l-10.5 3.5c-.3.1-.4 1-.7 1.5zm.5 6.9c3.4-1.1 6.7-2.2 9.9-3.4.5-.2.7-1.1 1.2-2.1-10.9 3.6-10.9 3.6-11.1 5.5zm.6-10.7c3.2-1 6.5-1.9 9.7-2.9-2.5-.6-6.2.5-9.7 2.9zm19.9 3.6c2.8-.7 5.3-1.5 8-3.3-5.2.6-7.2 1.4-8 3.3zm7.4-13c-.1-.2-.2-.5-.3-.7-1.2.4-2.5.6-3.5 1.2s-2.9 0-3.2 2.2c2.7-.3 5-1.1 7-2.7zM3.2 21.7c-.2.2-.4.5-.6.7 2 2.2 4.1 4.4 6.6 6 .1-.2.3-.3.4-.5-2.1-2.1-4.3-4.2-6.4-6.2zm39.7-.2c-2.5 1-4.7 1.6-6.6 3 3.5 0 5.9-1 6.6-3zM21 32.7c-4.5.4-5.2.7-6 2.3 2.1-.8 4-1.5 6-2.3zM8.6 24.2l.3-.3c-1.2-1.2-2.4-2.4-3.9-3.8 1.3 1.5 2.5 2.8 3.6 4.1zm34.1 1.6c0-.1-.1-.3-.1-.4-.8.2-1.6.5-2.4.7-.7.2-1.4.5-2.2.8 0 .1.1.2.1.4 1.5-.5 3-1 4.6-1.5zm-39 2.5l-.6.6c.9.8 1.8 1.5 2.7 2.3l.3-.3c-.8-.9-1.6-1.7-2.4-2.6zm-.5-2.9l-.5.5c.6.4 1.1.7 1.7 1.1.1-.1.2-.3.3-.4l-1.5-1.2zm7.6 7.9c.1-.2.3-.3.4-.5-.4-.3-.9-.6-1.3-.9-.1.1-.1.2-.2.3l1.1 1.1z"/></svg>