<svg id="Слой_1" xmlns="http://www.w3.org/2000/svg" viewBox="0 0 100 125"><style>.st0{fill:#1fba0a}</style><path class="st0" d="M48.9 56.8H30.4c-4.7 0-9.3 1-13.6 2.9l-.2.1c-2.4 1.1-3.9 3.2-4.2 5.8-.6.1-1.4 0-1.9-.3-.4-.3-.7-.7-.9-1.3-.1-.5-.6-.9-1.2-.8-.5.1-.9.6-.8 1.2.3 1.2.9 2.1 1.8 2.6.8.5 1.7.6 2.5.6h.5c.4 2.2 1.8 4.2 3.9 5.2 4.5 2.2 9.5 3.3 14.5 3.3h19.1c.7 0 1.4-.5 1.5-1.3v-.1c.9-5.6.5-11.5-1.2-16.9-.1-.6-.6-1-1.3-1zm-18 16.4c-4.5 0-9.1-1.1-13.2-3-1.5-.7-2.4-2.2-2.3-3.8 0-1.7.9-3.1 2.5-3.7l.2-.1C22 60.9 26.2 60 30.4 60h17.4c.9 3.2 1.3 6.4 1.3 9.7H30.3c-6.5 0-9.7-2.3-9.8-2.3-.4-.3-1.1-.2-1.4.2s-.2 1.1.2 1.4c.1.1 3.7 2.7 11 2.7H49c0 .5-.1 1.1-.2 1.6l-17.9-.1zm59.2-4.1c-.9-1.7-3.6-1.8-6.3-.3.5-1.6.5-3-.6-3.8-1.2-.8-2.7-.2-4.1 1.1.4-1.6.2-3-.9-3.7s-2.4-.4-3.8.4c.1-1.3-.3-2.4-1.2-3-1-.7-2.2-.5-3.5.1-.1-1.2-.7-1.9-1.3-2.3-2.6-1.8-6.8 1.7-9.6 5.7s-4.5 9.2-1.9 11c.4.3.9.5 1.6.5.9 0 2-.3 3.3-1.3.1 0 .1-.1.2-.1.2.6.6 1 .9 1.2.5.3 1 .5 1.5.5 1.3 0 2.8-.8 4.1-2.1.1.7.4 1.3 1 1.7.3.2.8.4 1.4.4.7 0 1.5-.2 2.6-1 .6-.4 1.2-1 1.9-1.7-.1 1.4.5 2.1.9 2.4.3.2.7.4 1.2.4.6 0 1.3-.2 2.1-.8.3-.2.6-.4.9-.7.1.2.1.4.2.6.5.9 1.4 1.3 2.7 1.3h.3c1-.1 2.2-.4 3.2-1.1 2.9-1.4 4.1-3.7 3.2-5.4zm-31.5 2.7c-.2-.7.3-3.3 2.6-6.8 2.3-3.5 4.7-4.8 5.4-4.9.2.7-.3 3.3-2.6 6.8-2.3 3.5-4.7 4.9-5.4 4.9zm6.2.2c0-.3 0-.7.2-1.3.5-.6 1.1-1.3 1.5-2 1-1.5 1.8-3 2.4-4.4 1.1-1.1 2-1.7 2.5-1.8.1.8-.4 2.9-2.3 5.5-1.8 2.6-3.6 3.8-4.3 4zm9.7-3c-1.1 1.6-2.2 2.6-2.9 2.9.1-.8.6-2.1 1.7-3.7s2.2-2.6 2.9-2.9c-.2.7-.6 2.1-1.7 3.7zm4 2.9c.2-.5.5-1.2 1.1-2.1.6-.8 1.1-1.4 1.5-1.8-.2.5-.5 1.2-1.1 2.1-.6.8-1.1 1.4-1.5 1.8zm7.1.1c-.7.4-1.4.6-1.8.7.3-.3.7-.8 1.5-1.2s1.4-.6 1.8-.7c-.3.3-.8.8-1.5 1.2zM27.9 48.4h.2l12.8-2V49c0 .5.2.9.6 1.2.3.2.6.3.9.3h.3l7.8-1.8c6.3-1.4 11.9-4.2 16.3-8.1 6.6-6 10.1-13.9 10.1-22.9 0-.5-.3-1-.7-1.3-.4-.3-1-.3-1.4-.1l-33 14-14.5 6.5c-.5.2-.9.8-.9 1.4V47c0 .4.2.9.5 1.1.3.2.6.3 1 .3zm36.9-10.1c-3.4 3.1-7.6 5.3-12.2 6.7l1.8-4.4c.1-.3.4-.6.7-.7.3-.1.7-.1 1 0l.1.1c.9.4 1.9.4 2.8 0s1.5-1.2 1.8-2.1l.5-1.8c.2-.7.8-1.1 1.5-.9l1 .2c1.5.3 3-.5 3.6-1.9.1-.3.4-.6.7-.7.3-.1.7-.1 1 .1l.3.2c-1.4 1.9-2.9 3.6-4.6 5.2zm5.5-6.9l-.5-.3c-.8-.4-1.7-.5-2.6-.2-.8.3-1.5.9-1.9 1.7-.2.5-.8.8-1.4.7l-1-.2c-1.7-.4-3.4.7-3.8 2.4l-.5 1.8c-.1.4-.3.7-.7.8-.3.2-.7.2-1.1 0l-.1-.1c-.8-.4-1.7-.4-2.6-.1-.8.3-1.5 1-1.8 1.8l-2.4 5.8c-.1 0-.2 0-.2.1L43.8 47V32.5l29.9-12.7c-.2 4.3-1.4 8.1-3.4 11.6zm-40.9 7.7l11.5-5.2v9.4l-11.5 1.8v-6z"/></svg>