<svg xmlns="http://www.w3.org/2000/svg" viewBox="0 0 85 85" width="85" height="85"><style>tspan{white-space:pre}.shp0{fill:#1fba0a}</style><g id="Layer"><path id="Layer" class="shp0" d="M43.2 54.8c1.7 5.4 2.1 11.3 1.2 16.9v.1c-.1.8-.8 1.3-1.5 1.3H23.8c-5 0-10-1.1-14.5-3.3-2.1-1-3.5-3-3.9-5.2h-.5c-.8 0-1.7-.1-2.5-.6-.9-.5-1.5-1.4-1.8-2.6-.1-.6.3-1.1.8-1.2.6-.1 1.1.3 1.2.8.2.6.5 1 .9 1.3.5.3 1.3.4 1.9.3.3-2.6 1.8-4.7 4.2-5.8l.2-.1c4.3-1.9 8.9-2.9 13.6-2.9h18.5c.7 0 1.2.4 1.3 1zM23.9 70.2l17.9.1c.1-.5.2-1.1.2-1.6H23.3c-7.3 0-10.9-2.6-11-2.7-.4-.3-.5-1-.2-1.4.3-.4 1-.5 1.4-.2.1 0 3.3 2.3 9.8 2.3h18.8c0-3.3-.4-6.5-1.3-9.7H23.4c-4.2 0-8.4.9-12.3 2.6l-.2.1c-1.6.6-2.5 2-2.5 3.7-.1 1.6.8 3.1 2.3 3.8 4.1 1.9 8.7 3 13.2 3zm56 1.3c-1 .7-2.2 1-3.2 1.1h-.3c-1.3 0-2.2-.4-2.7-1.3-.1-.2-.1-.4-.2-.6-.3.3-.6.5-.9.7-.8.6-1.5.8-2.1.8-.5 0-.9-.2-1.2-.4-.4-.3-1-1-.9-2.4-.7.7-1.3 1.3-1.9 1.7-1.1.8-1.9 1-2.6 1-.6 0-1.1-.2-1.4-.4-.6-.4-.9-1-1-1.7-1.3 1.3-2.8 2.1-4.1 2.1-.5 0-1-.2-1.5-.5-.3-.2-.7-.6-.9-1.2-.1 0-.1.1-.2.1-1.3 1-2.4 1.3-3.3 1.3-.7 0-1.2-.2-1.6-.5-2.6-1.8-.9-7 1.9-11s7-7.5 9.6-5.7c.6.4 1.2 1.1 1.3 2.3 1.3-.6 2.5-.8 3.5-.1.9.6 1.3 1.7 1.2 3 1.4-.8 2.7-1.1 3.8-.4 1.1.7 1.3 2.1.9 3.7 1.4-1.3 2.9-1.9 4.1-1.1 1.1.8 1.1 2.2.6 3.8 2.7-1.5 5.4-1.4 6.3.3.9 1.7-.3 4-3.2 5.4zM57 63.9c2.3-3.5 2.8-6.1 2.6-6.8-.7.1-3.1 1.4-5.4 4.9-2.3 3.5-2.8 6.1-2.6 6.8.7 0 3.1-1.4 5.4-4.9zm5.1 1.1c1.9-2.6 2.4-4.7 2.3-5.5-.5.1-1.4.7-2.5 1.8-.6 1.4-1.4 2.9-2.4 4.4-.4.7-1 1.4-1.5 2-.2.6-.2 1-.2 1.3.7-.2 2.5-1.4 4.3-4zm7.1-2.7c-.7.3-1.8 1.3-2.9 2.9-1.1 1.6-1.6 2.9-1.7 3.7.7-.3 1.8-1.3 2.9-2.9 1.1-1.6 1.5-3 1.7-3.7zm3.8 4.8c.6-.9.9-1.6 1.1-2.1-.4.4-.9 1-1.5 1.8-.6.9-.9 1.6-1.1 2.1.4-.4.9-1 1.5-1.8zm7.1.7c-.4.1-1 .3-1.8.7-.8.4-1.2.9-1.5 1.2.4-.1 1.1-.3 1.8-.7.7-.4 1.2-.9 1.5-1.2zM19.9 45.1c-.3-.2-.5-.7-.5-1.1v-8.8c0-.6.4-1.2.9-1.4l14.5-6.5 33-14c.4-.2 1-.2 1.4.1.4.3.7.8.7 1.3 0 9-3.5 16.9-10.1 22.9-4.4 3.9-10 6.7-16.3 8.1l-7.8 1.8h-.3c-.3 0-.6-.1-.9-.3-.4-.3-.6-.7-.6-1.2v-2.6l-12.8 2h-.2c-.4 0-.7-.1-1-.3zm46.8-28.3L36.8 29.5V44l5.9-1.4c0-.1.1-.1.2-.1l2.4-5.8c.3-.8 1-1.5 1.8-1.8.9-.3 1.8-.3 2.6.1l.1.1c.4.2.8.2 1.1 0 .4-.1.6-.4.7-.8l.5-1.8c.4-1.7 2.1-2.8 3.8-2.4l1 .2c.6.1 1.2-.2 1.4-.7.4-.8 1.1-1.4 1.9-1.7.9-.3 1.8-.2 2.6.2l.5.3c2-3.5 3.2-7.3 3.4-11.6zm-4.3 13.3l-.3-.2c-.3-.2-.7-.2-1-.1-.3.1-.6.4-.7.7-.6 1.4-2.1 2.2-3.6 1.9l-1-.2c-.7-.2-1.3.2-1.5.9l-.5 1.8c-.3.9-.9 1.7-1.8 2.1-.9.4-1.9.4-2.8 0l-.1-.1c-.3-.1-.7-.1-1 0-.3.1-.6.4-.7.7L45.6 42c4.6-1.4 8.8-3.6 12.2-6.7 1.7-1.6 3.2-3.3 4.6-5.2zm-40 12l11.5-1.8v-9.4l-11.5 5.2v6z"/></g></svg>