<svg id="Capa_1" xmlns="http://www.w3.org/2000/svg" viewBox="0 0 120 120"><style>.st0{fill:#1fba0a}</style><path class="st0" d="M119.6 74.6c-.7-1.2-1.2-2.5-2.3-3.2-.8-1.1-2-1.9-2.8-3-2-1.8-4-3.5-6.9-4.4-.2-.5-1.3.1-1.4-.5-4.8-.2-8.5.7-12.6 1.1h-9.4c-3.1-.5-5.8-1.4-8.3-2.5-1.3-1.2-2.9-2.1-3.9-3.7-1.3-1.3-2.1-3.1-2.8-5 0-2.9.1-6.8-.2-8.9-.1-.4 0-.8 0-1.1-.1-2.1-.1-4.9-.5-6.2v-.5c-.2-1.3-.6-3-.7-3.9 0-.7-.4-1-.5-1.6 0-.3-.2-.3-.2-.5-.7-2.1-1.3-4.2-2.3-6-1.1-1.6-2-3.5-3.4-4.8-1.1-1.7-2.5-3-4.1-4.1-2.8-2.7-6.2-5-10.6-6.2-.5-.5-1.5-.2-2.1 0-.9.1-1.2-.5-2.1-.5-1.3-.4-3.1-.4-4.6-.7h-6.4c-.3 0-.3.3-.7.2-1 0-2.1-.1-2.8.2-.4.1-1.3-.3-1.4.2-.4.1-1.3-.3-1.4.2-1.8.3-3.5.6-4.8 1.4-3.4.8-5.7 2.8-8.5 4.1-.7.8-1.6 1.4-2.5 2.1-.5 1.1-2 1.2-2.3 2.5-1.7 1.4-3.2 3.1-4.4 5-.5 1.5-1 3-1.1 4.8C.9 30.4.5 31.9.2 33.7c-.9 4-.4 9.2.2 13.1.5.6.3 2 .9 2.5 0 1.2.7 1.7.9 2.8.7 1.6 1.8 3 2.5 4.6 1 .7 1.5 1.9 2.3 2.8 1.1.7 1.7 1.8 2.8 2.5.5 1.1 1.3 2.1 2.5 2.5.9.8 2 1.6 3.4 1.8 2.1-.1 3.9-.3 5-1.4.8-1.9.6-5.3-.7-6.4-.5-.8-1.2-1.5-1.8-2.3-.9-.4-1.4-1.4-1.8-2.3-1.5-2.6-2.3-6.7-1.6-10.8.4-.7.8-1.4 1.1-2.1.2-.4.2-.8.5-1.1.3-.4.9-.8 1.1-1.1.2-.3.3-.3.5-.5 1.9-1.8 4.2-2.6 8-2.3.2.5 1.2.2 1.4.7.8-.1.8.7 1.6.7.8.7 1.5 1.4 2.3 2.1 1.3 1.6 2.4 3.4 3.2 5.5 0 5.4.6 10.3.7 15.6 1.2 7 2.6 13.9 4.8 20-.1 1.7-.7 2.8-.5 4.8.6 1.1.2 3.3 1.1 4.1.8.4 1.4.9 2.3 1.1.9.4 2.4 0 3.2.5 3.9 4.4 7.8 8.9 13.5 11.5.2.3.6.5.9.7.1.5.2 1 .7 1.1.6.7 1.3 1.1 2.3 1.4 1.6.6 3.6.4 5.3 0 .2.4 1 .2 1.4.5.5.1.9.4 1.6.2.2.4 1 .2 1.4.5.7-.1 1 .4 1.8.2 2 .5 4.3.7 6.9.7 1.1.5 2.1 1.1 3.2 1.6.3.5 1.1.4 1.4.9.6.2 1.3.4 1.8.7 4.3.4 7.1-.7 10.1-1.6 2.8-1.8 5.5-3.9 7.8-6.2 2.7-2.1 4.9-4.6 7.1-7.1 4.4-4.8 8-12.4 6.3-21.6zM15.8 60.2c.4.3.8.6 1.1.9.6 0 .6.6.9.9-.2 1-1.6.5-2.1 0-.8-.4-1.1-1.2-1.8-1.6-1-1.3-2.3-2.2-3.2-3.4.3-.9 1-1.4 1.1-2.5.3 0 .4 0 .5.2 1 2.1 2.3 3.7 3.5 5.5zM17.2 34c-.2.9-.7 1.6-1.6 1.8-3.2.3-2.3-5 .2-4.8.5.2.5 1 .9 1.4.3.5.7.8.5 1.6zm12.9-3.4c-.4-.8-.8-1.5-.7-2.8.6-1.1 2.3-1.6 3.4-.9.6.3 1.1 1.8.9 3-.9.9-2.4 1.4-3.6.7zm8.7 33.7c-.5-.4-.9-.8-1.4-1.1 0-.3 0-.7-.2-.7-.2-1.5.4-2.4.7-3.5l2.1-.9c2.1-.1 3.2.6 4.1 1.6.3 2.2-1 2.8-1.6 4.1-1 .5-2.2.6-3.7.5zm1.4-15.6c-.8.2-.8-.4-.9-.9.5 0 .8.3.9.9zm-.3-4.1c.2-1.1.7-1.8 1.4-2.3 1.2-.1 3.2-.6 3.9.2.2 1.4-.3 2.1-.9 2.8-1 .1-.8 1.5-2.1 1.4-1.4-.1-1.8-1.1-2.3-2.1zm9.7 39.2c0 1.3-1.2 1.4-1.1 2.8-.4.2-.7.5-.9.9-.3.3-.9.4-1.1.7-2.2.1-3.4-.7-4.1-2.1-.1-2.3.9-3.4 1.8-4.6 1.8-.1 4-1.4 5.3 0 .1.6.1 1.4.1 2.3zm19 17.9c-.3.9-.9 1.4-1.4 2.1-.7-.1-1 .4-1.8.2-1.3-.2-1.8-1.3-2.3-2.3-.2-3.8 1.1-6.1 4.8-6 .7.7 1 1.7 1.1 3 .3 1.4-.6 1.6-.4 3zm18.8-12.1c-.9-.1-.6-1.4-1.1-1.8-.4-.9-1.3-1.5-1.8-2.3-.7-.2-1.4-.5-1.8-.9-1.4.1-3.1-.2-4.1.2-2.6 1.1-3.8 3.5-3.4 7.6.3 2.3 1.4 3.8 3 4.8 2 .5 3.5-.5 5.5 0 1 .1 1.3-.6 2.1-.7-.2 2.7-.1 4.4 0 7.1-.7.1-.8-.4-1.6-.2-.1-1.9.2-4.1-1.4-4.4-1.7.1-.8 2.7-1.4 3.9-.7.1-1.1-.2-1.6-.2.1-.8.3-1.5.2-2.5.1-1.1-.4-1.4-.9-1.8-.6 0-.7.4-1.1.5-.4.1 0 1.1-.5 1.1v.9c0 .3-.2.3-.2.5-.1.3.2 1.1-.5.9-.3-2 1.2-5-1.1-5.3-1.1 0-.8 1.5-1.1 2.3-.3.9.2 2.5-1.1 2.3-.9.1-.7-.9-.7-1.6v-2.3c-.2-1.2-.6-2.3-1.1-3.2-.3-.7-1.1-.9-1.4-1.6-.6-.2-1.2-.4-1.6-.7h-1.8c-.9.2-1.7.5-2.5.7-.6.4-1.1.9-1.8 1.1-.3.6-.8 1.1-1.1 1.6-.6.3-.3 1.4-1.4 1.1-1.4-1.6 2.2-4.6 0-6.2-1.3-.1-1.2 1.1-1.8 1.6.1.7-.3.9-.5 1.4-.1.4-.1 1-.7.9-1-1 .2-2.5.7-3.4.2-1.1 1.2-3.4-.5-3.7-2.1.2-1.7 2.9-2.8 4.1-.7-.3.2-1 .2-1.4.1-.5.3-.9.5-1.4.3-.9.9-2 .5-3-1.3-.1-1.1 1.3-1.8 1.8-.4.8-.4 2.1-1.6 2.1-.1-.7-.8-.9 0-1.4.2-.5.5-1 .9-1.4.1-.7.2-1.3.5-1.8v-2.5c-.5-2.4-1.4-3.9-3.7-4.8-1-.4-3.2-.3-5 0-.3-2.2 1.5-2.3 1.8-3.9-.2-.7-.6-1.1-1.6-.9-.6 0-1.1 1.2-1.4.7-1.2-1.7 1-2.6 1.1-4.4 0-.2-.2-.2-.2-.5 0-.7-1-.4-1.6-.5-.3.5-.6.4-.9 0-.3-1.2.4-.9.9-1.1.4-.2 1-.4 1.4-.5.9-.3 1.3-1.1 2.3-1.4.6-1.1 1.5-1.9 1.6-3.4 0-1.6-.5-2.9-1.1-3.9-.4-.6-1-1.2-1.6-1.6-.5-.5-1.4-.7-2.1-1.1-.7 0-1.7.2-2.1-.2-.2.5-1.4.2-1.1-.5 1.6-.2 4 .5 4.6-.7-.1-1.1-1.5-1-1.6-2.1-.4-.4.2-.8.5-1.1.1-.7-.5-.7-.5-1.4.6-.2 1.4-.3 2.1-.5.9-.4 1.5-1.1 2.3-1.6 0-.6.4-.8.7-1.1 0-.3 0-.7.2-.7.4-4-1.2-6.2-4.6-6.4-1.1 0-1.8.3-2.8.5-.6.2-.9.6-1.6.7-.3.4-.5.9-1.1.9-1.4-2.7-3-5.1-5.5-6.7.1-.7 1.3-.4 1.8-.7 1.2-.6 1.9-1.6 2.5-2.8 1.4-6-6.4-9.1-8.9-5-.3 1.3.1 1.9 0 3.4.3 1.2 1.1 1.8 1.4 3-1.2-.1-2-.6-3.2-.7-.1-1.8.1-3.9-1.1-4.6-2.3-.2-.7 3.6-1.8 4.6-1.2.1-.5-1.8-.7-2.8 0-1 .2-2.4-.7-2.5-2 .5-.8 4.1-1.6 5.7-.9 0-.5-1.1-1.1-1.4-.1-.6-.7-.9-.9-1.4-.9-.5-2.2-.5-3.7-.5-1.6.5-2.9 2.3-2.8 4.4.1 1.5.9 2.7 2.1 3.2-1.3 2.1-2.7 4.2-3.2 7.1-.2 3.9.4 6.9 1.1 9.9-1.2-.8-2 .5-2.5 1.1-.8.2-.4-.8-.9-.9-.9-.1-.9-.7-1.3-.9.1-1.1 1.5-2 .7-3.2-.6-.9-1.1.1-2.1 0 0-2.5 2.3-2.8 2.3-5.3.1-.5-.7-.3-.7-.7-1.6-.2-1.6 1.2-2.8 1.4-.1-.6 1-1 1-1.6 0-.3.7-1.2 1.1-1.6.4-1.4 1.7-1.8 2.1-3.2-.2-.6-.6-1-1.1-1.1-1.7.1-2.2 1.3-3 2.3-.6-.4 0-1.4.4-1.5.3-.5.6-.9.9-1.4.7-.9 1.7-1.4 1.6-3-.6-1.3-1.8-.3-2.8 0 1.1-4.4 3.5-7.7 5.3-11.5 2.6-2.1 5.3-4.1 8.3-5.7 3.2-1.4 6.7-2.5 10.8-3 2.7-.2 5.5-.3 8.5-.2 4 .5 8 1 11.2 2.3 1.1 1.1 2.5 1.9 3.7 3 1.3.9 2.2 2.3 3.4 3.2 4.4 4.6 6.8 11.1 7.6 19.3V51c-.2.6.3.6.2 1.1v4.1c.3 2.5.7 4.9 1.8 6.7 1.3 1.7 3.1 2.8 5.3 3.7.9.7 1.9 1.2 2.8 1.8 1.1.4 2.3.6 3.2 1.1.6 0 1.1 0 1.4.2h2.8c.4.8 1.1 1.4 1.1 2.5.7 0-.2 1.4.5 1.4 0 .6.4.7.7.9h1.1c1.6-.8.5-3.1.2-4.6 3.7-.7.7 5.3 3.7 5.3 2.4-.2 1-3.4.9-5 .4 0 .9.1.9-.2 2.1.4.2 4.9 2.5 5 2.3-.2 1.1-3.4.9-5 .9.2 1.1-.3 1.8-.2.6.9.6 2.4 1.8 2.5 1.6 0 1.4-1.7 1.1-3 3.1-.1 7.2-1.9 9.6 0-.9.8-3 .5-3.9 1.4-1.4.2-2.6.8-3.4 1.6-2.4 1-4.2 2.7-6 4.4-3.2 3.5-6 7.6-7.6 12.9zm-5.7 5.5c-1.5.2-2-.6-3.2-.7-1-1.1-1.6-3.4-.7-5 1.1-.8 2.8-1.5 4.1-.9.1 0 1 .9 1.1 1.1.3.5.3 1.5.5 2.1-.1.9-.3 1.6-.9 1.8.1.9-.5 1.2-.9 1.6zm34.4-12.7c-.1 3.2-1.4 5.4-2.5 7.8-1.1 2.3-2.5 4.4-4.1 6.2-.7 1-1.5 2-2.5 2.8-1 .7-1.4 1.9-2.5 2.5-1.9 1.5-3.5 3.2-5.7 4.4-3.5.2-6.5-.2-8.5-1.6-.5-.8-.3-2.3-.7-3.2.1-2.6.5-5 .9-7.3.4-.4.5-1.2.7-1.8.3-.6.6-1.1.7-1.8.7-1 .9-2.3 1.6-3.2 1.1-2.2 2.3-4.2 3.9-5.7 3.1-3.4 6.6-6.4 12.4-7.1.4.1.4-.2.7-.2 1.2-.1 2.1.2 3 .5.8 1 1.8 1.9 1.8 3.7.2 1.2.9 2.2.8 4zM55.3 32.9h-1.4c-.1.3-.4.4-.5.7-.6.7-1 1.4-1.4 2.3-.7.6-1.3 1.3-1.1 2.8.5.4.9.7 1.6.9 2-1.1 3.4-3.8 2.8-6.7zm0 11.7c1.3.5 2.2-.9 2.8-1.8.3-1.2 1.2-2.8.2-3.9h-1.4c-.9 1.4-2.9 3.8-1.6 5.7zm2.1 1.4c-.8 1.5-2.2 2.6-2.1 5 .3.1.6.4.7.7 1.7.2 2.4-.5 2.8-1.6.6-1 1.1-2 .9-3.7-.7-.6-1.3-.8-2.3-.4zm4.3 27c.3-.4.3-1.1.7-1.4.4-3.8-.9-5.9-3-7.3-1.1-.3-2.5-.2-3.9-.2-.1 0-.3 0-.2.2-1.9.2-2.7 1.6-3.7 2.8-.5 1.9-.3 4.8.5 6.2 1.5 1.4 3.8 2 6.7 2.1 0-.3.6-.2.9-.2.5-.3.7-.9 1.4-.9.1-.6.4-.9.6-1.3zm-4.5 0c-1.3.2-2-.3-3.2-.2-.6-.8-1.2-1.5-1.1-3 .4-2.4 3.9-3.2 5.7-1.6.6 2-.1 4.2-1.4 4.8zm53.9 3.3h-1.8c-5.8 2.2-8.4 7.5-13.1 10.8-.1.9-.9 1-.9 1.8-.6.4-.6 1.4-1.1 1.8-.4 1.5-1.4 2.4-1.6 4.1-.1 1.6.8 2.1.5 3.9.3 1.3.8 2.2 1.6 3 4.3.5 5.5-2 7.8-3.4 1.6-2.2 3.4-4.1 4.4-6.9 1.5-1.2 2.9-2.5 4.1-3.9.6-1.7 1.4-3.2 2.1-4.8.5-2.7-.2-5.6-2-6.4zm-.7 6.4c-1 3.1-3.4 4.7-5.5 6.7 0 .4-.2.6-.5.7-.7 1.7-1.8 2.9-2.5 4.6-1.1.7-1.7 1.8-2.8 2.5-.9.8-1.5 1.8-3.2 1.8-.7-2.3.2-4.6.2-6.9.6-1.3 1.4-2.4 2.1-3.7 3.9-2.6 6.2-6.8 10.6-8.9.2-.2.4-.3.7-.5h.2c.9-.1.5 1.2.9 1.6.1.8 0 1.5-.2 2.1zm-42.7-4.8h-3.2c-.1 0-.3 0-.2.2-1-.2-1.1.4-1.8.5-.3.5-.9.7-1.4 1.1-.4 1.1-.9 2.2-.7 3.9.5.8.7 1.9 1.6 2.3.8.6 1.1 1.5 1.8 2.1 1 .1 1.7.5 2.8.5 3-.4 4.6-2.1 5-5-.2-1.9-.9-3.4-1.8-4.6-.8-.3-1.5-.7-2.1-1zm.2 6.6c-.5.7-1 1.3-1.6 1.8h-2.1c-.6-.5-1.1-1-1.6-1.6-.1-1.5.1-2.7.7-3.4.5-.2.8-.6 1.6-.5 0-.2.3-.2.5-.2.9-.1 1.2.5 1.8.7.6.8.9 1.8.7 3.2z" id="_x30_406-tentacle"/></svg>