<svg xmlns="http://www.w3.org/2000/svg" viewBox="0 0 120 120" width="120" height="120"><style>tspan{white-space:pre}.shp0{fill:#1fba0a}</style><g id="_x30_406-tentacle"><g id="Layer"><path id="Layer" class="shp0" d="M113.3 96.2c-2.2 2.5-4.4 5-7.1 7.1-2.3 2.3-5 4.4-7.8 6.2-3 .9-5.8 2-10.1 1.6-.5-.3-1.2-.5-1.8-.7-.3-.5-1.1-.4-1.4-.9-1.1-.5-2.1-1.1-3.2-1.6-2.6 0-4.9-.2-6.9-.7-.8.2-1.1-.3-1.8-.2-.4-.3-1.2-.1-1.4-.5-.7.2-1.1-.1-1.6-.2-.4-.3-1.2-.1-1.4-.5-1.7.4-3.7.6-5.3 0-1-.3-1.7-.7-2.3-1.4-.5-.1-.6-.6-.7-1.1-.3-.2-.7-.4-.9-.7-5.7-2.6-9.6-7.1-13.5-11.5-.8-.5-2.3-.1-3.2-.5-.9-.2-1.5-.7-2.3-1.1-.9-.8-.5-3-1.1-4.1-.2-2 .4-3.1.5-4.8-2.2-6.1-3.6-13-4.8-20-.1-5.3-.7-10.2-.7-15.6-.8-2.1-1.9-3.9-3.2-5.5-.8-.7-1.5-1.4-2.3-2.1-.8 0-.8-.8-1.6-.7-.2-.5-1.2-.2-1.4-.7-3.8-.3-6.1.5-8 2.3-.2.2-.3.2-.5.5s-.8.7-1.1 1.1c-.3.3-.3.7-.5 1.1-.3.7-.7 1.4-1.1 2.1-.7 4.1.1 8.2 1.6 10.8.4.9.9 1.9 1.8 2.3.6.8 1.3 1.5 1.8 2.3 1.3 1.1 1.5 4.5.7 6.4-1.1 1.1-2.9 1.3-5 1.4-1.4-.2-2.5-1-3.4-1.8-1.2-.4-2-1.4-2.5-2.5-1.1-.7-1.7-1.8-2.8-2.5-.8-.9-1.3-2.1-2.3-2.8-.7-1.6-1.8-3-2.5-4.6-.2-1.1-.9-1.6-.9-2.8-.6-.5-.4-1.9-.9-2.5-.6-3.9-1.1-9.1-.2-13.1.3-1.8.7-3.3 1.4-4.6.1-1.8.6-3.3 1.1-4.8 1.2-1.9 2.7-3.6 4.4-5 .3-1.3 1.8-1.4 2.3-2.5.9-.7 1.8-1.3 2.5-2.1 2.8-1.3 5.1-3.3 8.5-4.1 1.3-.8 3-1.1 4.8-1.4.1-.5 1-.1 1.4-.2.1-.5 1-.1 1.4-.2.7-.3 1.8-.2 2.8-.2.4.1.4-.2.7-.2h6.4c1.5.3 3.3.3 4.6.7.9 0 1.2.6 2.1.5.6-.2 1.6-.5 2.1 0 4.4 1.2 7.8 3.5 10.6 6.2 1.6 1.1 3 2.4 4.1 4.1 1.4 1.3 2.3 3.2 3.4 4.8 1 1.8 1.6 3.9 2.3 6 0 .2.2.2.2.5.1.6.5.9.5 1.6.1.9.5 2.6.7 3.9v.5c.4 1.3.4 4.1.5 6.2 0 .3-.1.7 0 1.1.3 2.1.2 6 .2 8.9.7 1.9 1.5 3.7 2.8 5 1 1.6 2.6 2.5 3.9 3.7 2.5 1.1 5.2 2 8.3 2.5h9.4c4.1-.4 7.8-1.3 12.6-1.1.1.6 1.2 0 1.4.5 2.9.9 4.9 2.6 6.9 4.4.8 1.1 2 1.9 2.8 3 1.1.7 1.6 2 2.3 3.2 1.7 9.2-1.9 16.8-6.3 21.6zM95 76.7c1.8-1.7 3.6-3.4 6-4.4.8-.8 2-1.4 3.4-1.6.9-.9 3-.6 3.9-1.4-2.4-1.9-6.5-.1-9.6 0 .3 1.3.5 3-1.1 3-1.2-.1-1.2-1.6-1.8-2.5-.7-.1-.9.4-1.8.2.2 1.6 1.4 4.8-.9 5-2.3-.1-.4-4.6-2.5-5 0 .3-.5.2-.9.2.1 1.6 1.5 4.8-.9 5-3 0 0-6-3.7-5.3.3 1.5 1.4 3.8-.2 4.6h-1.1c-.3-.2-.7-.3-.7-.9-.7 0 .2-1.4-.5-1.4 0-1.1-.7-1.7-1.1-2.5h-2.8c-.3-.2-.8-.2-1.4-.2-.9-.5-2.1-.7-3.2-1.1-.9-.6-1.9-1.1-2.8-1.8-2.2-.9-4-2-5.3-3.7-1.1-1.8-1.5-4.2-1.8-6.7v-4.1c.1-.5-.4-.5-.2-1.1V40.9c-.8-8.2-3.2-14.7-7.6-19.3-1.2-.9-2.1-2.3-3.4-3.2-1.2-1.1-2.6-1.9-3.7-3-3.2-1.3-7.2-1.8-11.2-2.3-3-.1-5.8 0-8.5.2-4.1.5-7.6 1.6-10.8 3-3 1.6-5.7 3.6-8.3 5.7-1.8 3.8-4.2 7.1-5.3 11.5 1-.3 2.2-1.3 2.8 0 .1 1.6-.9 2.1-1.6 3-.3.5-.6.9-.9 1.4-.4.1-1 1.1-.4 1.5.8-1 1.3-2.2 3-2.3.5.1.9.5 1.1 1.1-.4 1.4-1.7 1.8-2.1 3.2-.4.4-1.1 1.3-1.1 1.6 0 .6-1.1 1-1 1.6 1.2-.2 1.2-1.6 2.8-1.4 0 .4.8.2.7.7 0 2.5-2.3 2.8-2.3 5.3 1 .1 1.5-.9 2.1 0 .8 1.2-.6 2.1-.7 3.2.4.2.4.8 1.3.9.5.1.1 1.1.9.9.5-.6 1.3-1.9 2.5-1.1-.7-3-1.3-6-1.1-9.9.5-2.9 1.9-5 3.2-7.1-1.2-.5-2-1.7-2.1-3.2-.1-2.1 1.2-3.9 2.8-4.4 1.5 0 2.8 0 3.7.5.2.5.8.8.9 1.4.6.3.2 1.4 1.1 1.4.8-1.6-.4-5.2 1.6-5.7.9.1.7 1.5.7 2.5.2 1-.5 2.9.7 2.8 1.1-1-.5-4.8 1.8-4.6 1.2.7 1 2.8 1.1 4.6 1.2.1 2 .6 3.2.7-.3-1.2-1.1-1.8-1.4-3 .1-1.5-.3-2.1 0-3.4 2.5-4.1 10.3-1 8.9 5-.6 1.2-1.3 2.2-2.5 2.8-.5.3-1.7 0-1.8.7 2.5 1.6 4.1 4 5.5 6.7.6 0 .8-.5 1.1-.9.7-.1 1-.5 1.6-.7 1-.2 1.7-.5 2.8-.5 3.4.2 5 2.4 4.6 6.4-.2 0-.2.4-.2.7-.3.3-.7.5-.7 1.1-.8.5-1.4 1.2-2.3 1.6-.7.2-1.5.3-2.1.5 0 .7.6.7.5 1.4-.3.3-.9.7-.5 1.1.1 1.1 1.5 1 1.6 2.1-.6 1.2-3 .5-4.6.7-.3.7.9 1 1.1.5.4.4 1.4.2 2.1.2.7.4 1.6.6 2.1 1.1.6.4 1.2 1 1.6 1.6.6 1 1.1 2.3 1.1 3.9-.1 1.5-1 2.3-1.6 3.4-1 .3-1.4 1.1-2.3 1.4-.4.1-1 .3-1.4.5-.5.2-1.2-.1-.9 1.1.3.4.6.5.9 0 .6.1 1.6-.2 1.6.5 0 .3.2.3.2.5-.1 1.8-2.3 2.7-1.1 4.4.3.5.8-.7 1.4-.7 1-.2 1.4.2 1.6.9-.3 1.6-2.1 1.7-1.8 3.9 1.8-.3 4-.4 5 0 2.3.9 3.2 2.4 3.7 4.8v2.5c-.3.5-.4 1.1-.5 1.8-.4.4-.7.9-.9 1.4-.8.5-.1.7 0 1.4 1.2 0 1.2-1.3 1.6-2.1.7-.5.5-1.9 1.8-1.8.4 1-.2 2.1-.5 3-.2.5-.4.9-.5 1.4 0 .4-.9 1.1-.2 1.4 1.1-1.2.7-3.9 2.8-4.1 1.7.3.7 2.6.5 3.7-.5.9-1.7 2.4-.7 3.4.6.1.6-.5.7-.9.2-.5.6-.7.5-1.4.6-.5.5-1.7 1.8-1.6 2.2 1.6-1.4 4.6 0 6.2 1.1.3.8-.8 1.4-1.1.3-.5.8-1 1.1-1.6.7-.2 1.2-.7 1.8-1.1.8-.2 1.6-.5 2.5-.7h1.8c.4.3 1 .5 1.6.7.3.7 1.1.9 1.4 1.6.5.9.9 2 1.1 3.2v2.3c0 .7-.2 1.7.7 1.6 1.3.2.8-1.4 1.1-2.3.3-.8 0-2.3 1.1-2.3 2.3.3.8 3.3 1.1 5.3.7.2.4-.6.5-.9 0-.2.2-.2.2-.5v-.9c.5 0 .1-1 .5-1.1.4-.1.5-.5 1.1-.5.5.4 1 .7.9 1.8.1 1-.1 1.7-.2 2.5.5 0 .9.3 1.6.2.6-1.2-.3-3.8 1.4-3.9 1.6.3 1.3 2.5 1.4 4.4.8-.2.9.3 1.6.2-.1-2.7-.2-4.4 0-7.1-.8.1-1.1.8-2.1.7-2-.5-3.5.5-5.5 0-1.6-1-2.7-2.5-3-4.8-.4-4.1.8-6.5 3.4-7.6 1-.4 2.7-.1 4.1-.2.4.4 1.1.7 1.8.9.5.8 1.4 1.4 1.8 2.3.5.4.2 1.7 1.1 1.8 1.6-5.3 4.4-9.4 7.6-12.9zM16.7 32.4c-.4-.4-.4-1.2-.9-1.4-2.5-.2-3.4 5.1-.2 4.8.9-.2 1.4-.9 1.6-1.8.2-.8-.2-1.1-.5-1.6zm17-2.5c.2-1.2-.3-2.7-.9-3-1.1-.7-2.8-.2-3.4.9-.1 1.3.3 2 .7 2.8 1.2.7 2.7.2 3.6-.7zm8.8 33.9c.6-1.3 1.9-1.9 1.6-4.1-.9-1-2-1.7-4.1-1.6l-2.1.9c-.3 1.1-.9 2-.7 3.5.2 0 .2.4.2.7.5.3.9.7 1.4 1.1 1.5.1 2.7 0 3.7-.5zm-3.2-16c.1.5.1 1.1.9.9-.1-.6-.4-.9-.9-.9zm2.9-1.1c1.3.1 1.1-1.3 2.1-1.4.6-.7 1.1-1.4.9-2.8-.7-.8-2.7-.3-3.9-.2-.7.5-1.2 1.2-1.4 2.3.5 1 .9 2 2.3 2.1zm7.3 34.8c-1.3-1.4-3.5-.1-5.3 0-.9 1.2-1.9 2.3-1.8 4.6.7 1.4 1.9 2.2 4.1 2.1.2-.3.8-.4 1.1-.7.2-.4.5-.7.9-.9-.1-1.4 1.1-1.5 1.1-2.8 0-.9 0-1.7-.1-2.3zM69 98.7c-.1-1.3-.4-2.3-1.1-3-3.7-.1-5 2.2-4.8 6 .5 1 1 2.1 2.3 2.3.8.2 1.1-.3 1.8-.2.5-.7 1.1-1.2 1.4-2.1-.2-1.4.7-1.6.4-3zm-56.7-44c-.1-.2-.2-.2-.5-.2-.1 1.1-.8 1.6-1.1 2.5.9 1.2 2.2 2.1 3.2 3.4.7.4 1 1.2 1.8 1.6.5.5 1.9 1 2.1 0-.3-.3-.3-.9-.9-.9-.3-.3-.7-.6-1.1-.9-1.2-1.8-2.5-3.4-3.5-5.5zm70.3 38.8c.6-.2.8-.9.9-1.8-.2-.6-.2-1.6-.5-2.1-.1-.2-1-1.1-1.1-1.1-1.3-.6-3 .1-4.1.9-.9 1.6-.3 3.9.7 5 1.2.1 1.7.9 3.2.7.4-.4 1-.7.9-1.6zm32.7-15.1c0-1.8-1-2.7-1.8-3.7-.9-.3-1.8-.6-3-.5-.3 0-.3.3-.7.2-5.8.7-9.3 3.7-12.4 7.1-1.6 1.5-2.8 3.5-3.9 5.7-.7.9-.9 2.2-1.6 3.2-.1.7-.4 1.2-.7 1.8-.2.6-.3 1.4-.7 1.8-.4 2.3-.8 4.7-.9 7.3.4.9.2 2.4.7 3.2 2 1.4 5 1.8 8.5 1.6 2.2-1.2 3.8-2.9 5.7-4.4 1.1-.6 1.5-1.8 2.5-2.5 1-.8 1.8-1.8 2.5-2.8 1.6-1.8 3-3.9 4.1-6.2 1.1-2.4 2.4-4.6 2.5-7.8.1-1.8-.6-2.8-.8-4zM52.5 39.6c-.7-.2-1.1-.5-1.6-.9-.2-1.5.4-2.2 1.1-2.8.4-.9.8-1.6 1.4-2.3.1-.3.4-.4.5-.7h1.4c.6 2.9-.8 5.6-2.8 6.7zm4.4-.7h1.4c1 1.1.1 2.7-.2 3.9-.6.9-1.5 2.3-2.8 1.8-1.3-1.9.7-4.3 1.6-5.7zm2.8 7.5c.2 1.7-.3 2.7-.9 3.7-.4 1.1-1.1 1.8-2.8 1.6-.1-.3-.4-.6-.7-.7-.1-2.4 1.3-3.5 2.1-5 1-.4 1.6-.2 2.3.4zm1.4 27.9c-.7 0-.9.6-1.4.9-.3 0-.9-.1-.9.2-2.9-.1-5.2-.7-6.7-2.1-.8-1.4-1-4.3-.5-6.2 1-1.2 1.8-2.6 3.7-2.8-.1-.2.1-.2.2-.2 1.4 0 2.8-.1 3.9.2 2.1 1.4 3.4 3.5 3 7.3-.4.3-.4 1-.7 1.4-.2.4-.5.7-.6 1.3zm-2.5-6.1c-1.8-1.6-5.3-.8-5.7 1.6-.1 1.5.5 2.2 1.1 3 1.2-.1 1.9.4 3.2.2 1.3-.6 2-2.8 1.4-4.8zm54.5 14.5c-.7 1.6-1.5 3.1-2.1 4.8-1.2 1.4-2.6 2.7-4.1 3.9-1 2.8-2.8 4.7-4.4 6.9-2.3 1.4-3.5 3.9-7.8 3.4-.8-.8-1.3-1.7-1.6-3 .3-1.8-.6-2.3-.5-3.9.2-1.7 1.2-2.6 1.6-4.1.5-.4.5-1.4 1.1-1.8 0-.8.8-.9.9-1.8 4.7-3.3 7.3-8.6 13.1-10.8h1.8c1.8.8 2.5 3.7 2 6.4zm-2.5-2.1c-.4-.4 0-1.7-.9-1.6h-.2c-.3.2-.5.3-.7.5-4.4 2.1-6.7 6.3-10.6 8.9-.7 1.3-1.5 2.4-2.1 3.7 0 2.3-.9 4.6-.2 6.9 1.7 0 2.3-1 3.2-1.8 1.1-.7 1.7-1.8 2.8-2.5.7-1.7 1.8-2.9 2.5-4.6.3-.1.5-.3.5-.7 2.1-2 4.5-3.6 5.5-6.7.2-.6.3-1.3.2-2.1zm-40.8-1.7c.9 1.2 1.6 2.7 1.8 4.6-.4 2.9-2 4.6-5 5-1.1 0-1.8-.4-2.8-.5-.7-.6-1-1.5-1.8-2.1-.9-.4-1.1-1.5-1.6-2.3-.2-1.7.3-2.8.7-3.9.5-.4 1.1-.6 1.4-1.1.7-.1.8-.7 1.8-.5-.1-.2.1-.2.2-.2h3.2c.6.3 1.3.7 2.1 1zm-2.6 2.4c-.6-.2-.9-.8-1.8-.7-.2 0-.5 0-.5.2-.8-.1-1.1.3-1.6.5-.6.7-.8 1.9-.7 3.4.5.6 1 1.1 1.6 1.6h2.1c.6-.5 1.1-1.1 1.6-1.8.2-1.4-.1-2.4-.7-3.2z"/></g></g></svg>