<svg id="Capa_1" xmlns="http://www.w3.org/2000/svg" viewBox="0 0 120 120"><style>.st0{fill:#1fba0a}</style><path class="st0" d="M116.5 14.7c-.6-1-1.4-1.8-1.9-2.9-1.3-1-2.7-2-4.1-2.9-.9-.1-1.6-.3-2.2-.7h-4.8c-1-.2-1.4-1.1-1.9-1.7-.6-.6-1.5-.9-1.9-1.7C96.6 3.4 94 1.6 90.1 1c-.5.1-.5-.3-1-.2-4.6-.2-8.7.1-11.8 1.4-.7.6-1.6 1-2.4 1.4-.8.4-1.1 1.4-2.2 1.7-4-3.8-9.7-5.8-18-5.3-3.5.5-6.6 1.4-9.4 2.6-.7.7-1.7 1-2.4 1.7-1 .5-1.2 1.7-2.4 1.9-1-1-2.5-1.5-4.1-1.9-.9-.2-1.8-.4-2.9-.5-2.1 0-3.7.5-5.5.7-1.3.8-2.8 1.5-4.3 2.2-.3.7-1.3.8-1.9 1.2-.9.3-1.2 1-2.2 1.2-.5.9-1.5 1.3-2.2 1.9-.7.7-.9 1.9-1.9 2.2-4-.8-7.6.7-10.1 2.2-1.9 2.6-3 6-2.6 10.8.4.4.4 1.1.5 1.7.4.3.6.8.7 1.4.6.9 1.1 1.8 1.7 2.6.7.8 1.3 1.6 2.2 2.2.7.8 1.3 1.8 2.6 1.9.7.5 2.6.2 3.4 0L25 57.6c1.2 1.9 2.1 4.3 3.1 6 .3.5.5.8.7 1.2.3.7.6 1.5 1 2.2.3.5.7.7 1 1.2.4.8.7 1.8 1 2.4 0 .1.4.1.5.2.4.8.7 1.8 1 2.4 0 .1.4.1.5.2.5.9.7 1.9 1.2 2.9.1.1.4.3.5.5.4.7.8 1.4 1 2.2.8.6 1.1 1.6 1.4 2.6.6.7 1.2 1.6 1.4 2.6 1.3 1.4 1.8 3.7 3.1 5 .2 1.2 1 1.7 1.2 2.9.9.4.8 2 1.7 2.4.8 1.9 1.8 3.7 2.9 5.3.8 1.9 1.7 3.7 2.9 5.3.8 2 1.9 3.6 3.1 5 .5.9 1 1.7 1.4 2.6.3 1 1.1 1.6 1.4 2.6 1.4 1.4 2 3.6 4.3 4.1.5.7 1.4-.3 2.4 0 .8-.1 1.6-.4 2.6-.2 2.6-2.4 4.2-5.9 6.2-8.9 1.9-3.2 4.3-6 5.5-9.9 1.9-3.1 3-7.1 4.3-10.8 1.7-3.4 3.3-7 5-10.3 3.6-6.6 7-13.3 10.1-20.4 1-1.5 1.4-3.6 2.4-5 .6-1.9 1.8-3.4 2.4-5.3 1.4-3.7 2.9-7.3 3.4-12 1.1-1.9 1.8-4.1 2.6-6.2 1.7-.1 2.6-1 3.8-1.4 2.2-2.3 4.2-4.7 5-8.4v-3.8c-.2-.5-.2-1.3-.5-2.1zm-61.3 88.5c-.5-.7-.5-1.9-1.2-2.4 0-.8 1.4-.2 1.2-1.2.1-.5-.3-.5-.2-1-.8-.1-1.1.2-1.7.2-.6-1.2-1.2-2.5-1.7-3.8 1.6-.8 3.1-1.7 5.5-1.7 1 .7 1.6 1.8 2.4 2.6-.1 1.2.3 2.8-.2 3.6h-.2c-.7 1.9-1.9 3.2-3.9 3.7zm28.4-26.7c-.1 1.2-.7 1.9-1.2 2.6-.3 1.1-.7 2-1.2 2.9-.5.8-.7 1.9-1.4 2.4-.9-.1-1-1.1-1.4-1.7-.4-.6-.4-1.5-.7-2.2.2-1.7-.4-2.6-.2-4.3.1-.2.4-.3.5-.5.4-.6.8-1.2 1.7-1.7 1.3-.7 3.8-1.1 5.5-.2-.6 1-1 1.9-1.6 2.7zm11.3-22.8c-2.4 5.8-5.6 10.9-7.9 16.8-1-.4-1.7-1-3.1-1-4.3 0-7.3 2-8.9 5-.9 1.7-1.4 3.4-1.2 6.5.3 1.3.6 2.6 1.2 3.6.4.7 1 1.3 1.4 1.9.5.6 1.7.5 1.9 1.4-5 9.2-9.3 19-15.1 27.4-1.8-.7-2.4-2.7-3.6-4.1-.7-1.8-1.8-3.3-2.6-5 .1-.9 1.2-.7 1.7-1.2.5-.4 1.2-.6 1.4-1.2 1.1-.6 1.7-1.8 2.4-2.9.2-1.3.5-4.8 0-6.2-.1-.2-.4-.6-.5-.7-.1-.3-.1-.6-.2-1-.1-.1-.4-.2-.5-.2-.1-.1.1-.4 0-.5-.7-.9-1.9-1.4-2.6-2.2-2.9-1.2-6.5-.5-8.9.7-2.4-4.8-5.1-9.4-7.2-14.4-1-2.6-2.3-4.9-3.4-7.4-.6-1.3-1.4-2.3-1.9-3.6-.8-.9-1.2-2.3-2.2-3.1-1.1-2.5-2.6-4.6-4.1-6.7-1.4-2.2-2.6-4.6-3.8-7-2.3-4.9-4.6-9.6-7-14.4 0-1 1.2-.8 1.7-1.4.6-.3 1.1-.8 1.7-1.2 1.6-1.2 2.7-2.9 4.3-4.1 1.2-1.6 2.3-3.3 4.1-4.3 4.4.6 7 2.9 11.5 3.4h2.9c5.1-.7 7.4-4.1 11.8-5.5 2-.1 2.8.9 4.3 1.2 1.3.5 2.6 1.1 3.8 1.7 2.7.4 6.1.2 9.1.2 2.9-.5 3.9-2.8 7.4-2.6 2 .7 3.3 2 4.3 3.6 1.4 1.3 2.6 2.7 3.8 4.1 1.1.4 1.9 1.1 2.9 1.7 1.2.1 1.9.7 3.4.5.6.8 1.1 1.6 1.7 2.4.9.4 1.8.7 2.4 1.4-.8 7.3-3.6 12.8-6.4 18.4zM113.1 20c-.4 2-1.5 3.3-2.4 4.8-1.9 1.3-3.1 3.3-6.2 3.4-.8.7.5 1.5 0 1.9-1 .3-1.4 1.2-2.6 1.2-1.8-.5-2.3-2.3-3.6-3.4-1.2-.3-1.8-1.3-3.1-1.4-.8-.7-1.7-1.4-2.6-1.9-.9-1.1-1.9-2.2-2.9-3.4-.9-.6-1.7-1.2-2.4-1.9-.9-.5-2-.9-2.9-1.4h-4.1c-.9.5-2.1.6-2.6 1.4-1 .3-1.8.8-2.6 1.2-1.2.2-1.9-.3-2.6 0-.9.2-.2-1-.7-1.2-.1-.5-.6-.5-1-.7-1.1 0-.9 1.2-1.4 1.7-1-.2-1.6-.6-1.4-1.9.2-.7-.2-.9-.2-1.4.2-.8-.6-.5-.7-1-.9-.2-.9.6-1.4.7 0 .7 0 1.5-.7 1.4-1.2-.1-.6-2-.7-3.1.1-1.3.1-2.5-1-2.6-2.4 0-1.3 3.4-1.9 5-2.4-.4.5-4.9-1.4-5.5-1.3 0-1.6.9-1.7 2.2-.5.1-.1 1.2-.2 1.7-.5 0-.1 1-.2 1.4-4.7 1-6.7 4.5-11.3 5.5H43c-4.2-.7-7-3.2-12-2.4-1.3.4-2.5.9-3.4 1.7-1.3 1.2-2.7 2.3-3.6 3.8-1.1-.6-.7-2.7-2.2-2.9-2.5.9.7 4.5-.7 5.8-1.7-.5-.4-3.9-2.6-3.8-1.3.1-.9 1.9-.7 2.9 0 1 1.1 2 .5 2.9-1.8-1.2-.6-5.5-2.4-6.7-1 0-1 .9-1.4 1.4-.1 1.3.2 2.1.2 3.1-.2 1 .9 2 .2 2.6-.8-.1-.6-1.3-1-1.9-.2-.6-.5-1.3-.5-2.2-.8-1 .1-3.8-1.4-4.1-1.1-.2-.7 1.2-1.2 1.7-.1 1.8.2 3.2.5 4.6-1-.6-1.2-2-1.7-3.1-.4-1.2-.7-2.5-.7-4.1.1-1.1.5-1.9.7-2.9.4-.2.7-.5 1-1 1.4-.6 3.6-.6 5.3-.2.5.6 1.3.9 1.9 1.4 1.6-.1 3.8.4 4.1-1 .2-1.5-.9-1.8-1.2-2.9 1.9-2.1 4.1-3.9 7.4-4.6h4.6c1.9.3 3.1 1.1 4.6 1.9.8.4 1.4 1.4 2.6 1.2 1.3-.2 1.6-1.3 1.4-2.9 2.1-.1 2.7-1.8 4.1-2.6 1.1-1 2.7-1.7 4.1-2.4 3.3-1.1 7.4-1.4 12-1.2 3.6.6 6.2 2.1 8.7 3.8 1.1 1 1.4 2.9 3.8 2.6 1.1-.3 1.8-1.7 1.2-2.9 3.1-2.2 7.7-3 13.2-2.9 2.5.3 4.9 1.4 7 2.4.4.2.8.4 1.2.7.2.1.5.1.7.2.4.2.6.7 1 1 .7.5.9.7 1.4 1.2.1.1.4.7.7 1 .4 1.6 0 4 1.7 4.3 2.7.2 2.7-2.3 3.1-4.3 4-.3 5.8 1.8 7.7 3.6.2.6.4 1.2.7 1.7l-.5 2.8zM48 32.5c.3.2.6.7.7 1 .2.3.2.8.5 1.2.4.6 1 1.2 1.4 1.9.2.4.2.8.5 1.2.2.3.5.6.7 1 .4.7.8 1.5 1.4 1.9.3.2.9.3 1.2.5.4.2.7.7 1.2.5 1.7-.8 3.7-1.2 4.8-2.6-.4-3-2.6-4.1-3.6-6.5-1.7-1.7-2.5-4.3-4.1-6-.8-.4-2-.2-2.9 0-1 .7-1.8 1.7-2.4 2.9.3 1 .9 1.6.6 3zm3.6-3.3c.8 1.4 1.6 2.9 2.4 4.3.8 1.4 1.5 2.9 2.6 4.1-.1.7-1 .6-1.2 1.2-1.4-1-1.8-3-3.1-4.1-.3-.9-.8-1.6-1.4-2.2-.2-1-1.3-1.1-1.4-2.2.7-.3 1-1.1 2.1-1.1zm26.2 2.1c.4-.5 1.2-.6 1.2-1.4-.8-1.3-1.5-2.8-3.8-2.6-.2.3-.2.9-.5 1.2.7 1.3 1.3 2.7 3.1 2.8zm-8.6-1.2c-.9-1.4-3.5-.4-3.4 1.4 1 1.3 3.2.3 3.4-1.4zm-30.6 9.6c.6-.3.5-1.3 1-1.7.4-3.6-.9-5.5-2.4-7.2-.6 0-.8-.4-1.2-.7-.3 0-.7 0-.7-.2h-2.2c-1.2.6-2.1 1.4-2.1 3.1-.1 1.2.5 1.8 1 2.4l1.2 2.4c.9 1.4 1.6 3 4.1 2.9.4-.3 1.1-.4 1.3-1zm-1.9-1.4c-1.1-.3-1.5-1.3-2.2-2.2-.4-1-1.3-1.4-1.2-2.9-.2-.7.5-.5.5-1 2.8.1 4.2 3.6 2.9 6.1zm53.8-1c-1.2 1-2.3 2.1-2.2 4.3.6.4 1 .9 1.9 1C92 42 93.6 39 92 37.3h-1.5zm-16.1 3.2c-1.9-.1-3.4.1-4.8.5-1.6.3-2.5 1.2-3.8 1.7-1 1.2-2.2 2.3-3.1 3.6-.4 1.4-1.1 3.1-.5 4.8.6.1.4.8 1.2.7.1.6 1.2.2 1.4.7.6.1 1.7-.3 1.9.2.6.1 1.7-.3 1.9.2-1.2 1.5-1.6 5.3-1.2 7 .1.5.2.9.5 1.2.4.4.8.9 1 1.2.6.1 1.1.3 1.4.7H74c2.5-1.3 4-4 3.4-7.7-.5-.4-.4-1.4-1-1.7-.1-.5-1.1-1.3-.5-1.7 1.5.2 3 .3 4.8.2 1.1-.9 1.2-2.8 1.2-4.8-.5-4.2-3.3-6.2-7.5-6.8zm4.4 8.8c-.5.5-2.2-.1-2.6.5-1.1 0-1.5.8-2.4.2 0 .6-.1 1.1-.5 1.4-.2 1.3.3 1.9.2 3.1.2 1.1 1 1.5 1 2.9-.4 1.5-.7 3-2.6 2.9 0-.3-.4-.2-.7-.2-1.8-2.7.3-6.9-.5-10.1-.6-.5-1.7-.5-2.9-.5-.8-.3-1.9-.3-2.9-.5.9-2.4 3-3.6 5-4.8 1.6-.3 3.6-.2 5.5-.2 0 .3.4.2.7.2.6.5 1.3.9 1.9 1.4.3 1.3.9 2.2.8 3.7zm-48.3-4.8c.3 1.1 3.1 1.4 3.4 0 0-1.7-3.5-1.5-3.4 0zm22.3 9.2c0-.1-.2-.2-.2-.5-.1-.9-.3-.9-.5-1.4-.1-.4-.1-.6-.2-1-.3-.1-.5-.3-.5-.7-1.4-1.2-2.9-2.4-5-2.9h-1.7c-.1 0-.3 0-.2.2-3 .5-5.2 1.9-7 3.6-.6 1.3-1.3 2.4-1.4 4.1.2 4.6 2.7 6.9 6 8.4 2.9.7 6.2 0 8.2-1 1.8-1.5 3-5.4 2.5-8.8zm-4.1 5c-.5.3-1.1.5-1.4 1-.3 0-.7 0-.7.2-1.1 0-2.3.1-3.1-.2-1-.1-1.5-.7-2.4-1-.3-.8-.5-1.7-.7-2.6.3-1.7 1.1-2.9 1.4-4.6.9-.6 2-.8 3.1-1.2 1.3.1 2.2.6 3.1 1 .2.5.4 1 1 1.2.3 1 .6 2 .7 3.1-.1 1.3-.6 2.2-1 3.1zM89.6 51c.4 1 2.1 1.5 2.9.7.1-1.4-2.8-2.4-2.9-.7zm-43.3 1c-.4.3-.4 1.6 0 1.9h1c.4-.3.4-1.6 0-1.9h-1zm-3.1 1.9c0 .8.5 1.1 1.4 1 .7-1-.8-1.9-1.4-1zm3.6 3.6v-1.2c-2.1-1.1-1.9 2.3 0 1.2zm38.9 7.2c1.9.1 1.6-2.8.7-3.6-2.4-.7-2.4 3.4-.7 3.6zm-18.5 4.4c.2-.3.4-.7.7-1 0-1.2-.5-1.9-1-2.6-2-.9-3.3.8-2.6 2.6.9.4 1.6 1 2.9 1zm-25.7-1.7c-.2-.6-1.3-1-1.9-.5 0 1.6 1.8 3.4 3.1 2.2 0-1-.3-1.6-1.2-1.7zm20.2 1.4c-.4-.1-1-.1-1.2-.5-1.8-.2-2.6.6-4.1.7-.4.6-1.2.9-1.7 1.4-.8.3-.9 1.3-1.9 1.4-.6-1.1-1.6-1.9-3.1-2.2-.9-.1-1.2.4-1.9.5-1.1 1.2-1.7 2.9-1.9 5 .7 4.8 2 9 6.5 10.1 1.4.2 2.4-.4 2.9-.7 1.6-1 3.1-2.7 3.1-4.8.1-1.3-.7-1.7-1-2.6 2.5-1 5-2 5.8-4.8.1-1.7-.7-2.6-1.5-3.5zm-3.4 5.5c-1.2.3-2.6.4-3.4 1.2.1.8-.2 1.9.2 2.4.2.6.4 1.4.7 1.9-.5 1-1.1 1.9-2.4 2.2-3.5-.7-5.8-4.8-4.3-8.9 2-.2 2 1.5 3.6 1.7 1 .2 1-.7 1.4-1 .6-.2.6-.8 1.2-1 .7-.8 1.8-1.3 2.6-1.9 1.3 0 2-.4 2.6.5.3 1.9-1.4 1.9-2.2 2.9zM80 76.5c.5.1.9-.1 1-.5-.3-.1-.4-.4-.7-.5-.2.4-.4.5-.3 1zm-.5 1.7c-.4.3-.8 1.2-.2 1.7.9.1 1.4-.2 1.4-1-.4-.3-.5-.8-1.2-.7zm-13 2.4c-.4-.2-.6-.7-1.4-.5-1 .8-2.6 1-2.6 2.9.5.7 2.2.6 2.4-.2.9-.4 1.7-.8 1.6-2.2zm2.2 3.6h-.2c-1.2 1.2-2.6 2.3-2.9 4.6.5 1.8 1.3 3.2 2.2 4.6.2.9.9 1.3 1.2 2.2.7.4.8 1.5 1.9 1.4 2-.5 3.4-1.8 4.1-3.6 0-.6-.4-.8-.7-1 .1-.8-.2-1.1-.2-1.7-.9-1.1-1.6-2.2-2.4-3.4-1.1-1-1.2-2.9-3-3.1zm2.9 10.1c-.5 0-.5-.6-.5-1.2-1-1.4-2.3-2.5-3.4-3.8-.2-1.1.6-1.2.7-1.9.3.1.4.4.7.5.8 2 1.9 3.5 3.4 4.8 0 .7-.8.8-.9 1.6zm-15.7.5c-.6 0-1.2 0-1.4.2-.1.6 0 .9.2 1.2.6 0 1.2 0 1.4-.2.3-.7-.3-.7-.2-1.2zm1.7 3.3c-.2 0-.2.2-.5.2-.4 1.4 1.1 1.8 1.9 1.2.1-.9-.4-1.4-1.4-1.4zm3.1 7.7c.3 1.1 1.6 2.1 2.9 1.4 1.1-1.5-2.3-3.6-2.9-1.4z" id="_x30_604-pizza-slice"/></svg>