<svg xmlns="http://www.w3.org/2000/svg" viewBox="0 0 120 120" width="120" height="120"><style>tspan{white-space:pre}.shp0{fill:#1fba0a}</style><g id="_x30_605-rice-chopsticks"><g id="Layer"><path id="Layer" class="shp0" d="M10.3 4.1c-.1-1.8.7-2.6 1.3-3.6.2-.2.5-.4.8-.5 4.5.4 8.4 1.4 12.7 2 2 .5 4.2.8 6.2 1.3 1.1 0 1.9.5 3.1.5.7.5 2.1.3 2.8.8C45.5 6 53.6 7.7 61.4 9.9c4.2.7 7.9 1.9 12.1 2.6 1.8.6 4 .9 5.9 1.5 1.9.5 4.1.7 5.7 1.5 2 .5 4.2.8 5.7 1.8.9.2 1.9.5 2.8.8.9.3 1.8.6 2.6 1 2.2.2 3.6 1.2 5.7 1.5.8.4 1.7.7 2.6 1 .6.6 2.1.3 2.1 1.5-2.9.6-5.8-.9-8.5-1.3-2.6-.8-5.1-1.7-8-2.1-.5-.4-1.3-.5-2.1-.5-.5-.4-1.4-.3-2.1-.5-1.5-.1-2.7-.6-4.4-.5-.2-.7-2 .2-2.1-.5-1 .1-1.5-.3-2.3-.3-1 .1-1.2-.5-2.3-.3-.2-.5-1.6.1-1.8-.5-1.6.3-2.2.1-3.9 0 0-.7-1.8.2-1.8-.5-.5-.2-1.7.3-1.8-.3-2.8-.1-5-.8-7.7-1-5-.8-10-1.6-15.2-2.3-5-.9-10.1-1.6-15.5-2.1-.2-.6-1.5-.1-2.1-.3-.3-.4-1.1-.3-1.8-.3-1.3-.1-2.5-.5-3.9-.5-.3-.5-1.3-.2-1.8-.5-.8.1-.9-.5-1.8-.3-.1-.6-1.3-.1-1.8-.3-.7.1-.7-.6-1.5-.5-.8-1-1.7-2.1-2.1-3.6zm4.2-.2c-.1 1.1.4 1.7.8 2.3h3.9c.7-.1.7.5 1.5.3H23c1.3.3 3 .3 4.4.5 1-.1 1.2.5 2.3.3.7-.1 1.6.8 2.1 0C26.3 6 20.7 4.9 15 3.9c-.1-.3-.3-.2-.5 0zm6.2 25.5c-3.8-.5-8.3-.3-12.1-.8-1-1.6-.4-5.1.3-6.5 1.4-.7 4-.3 5.4-1 10 .2 19.5.9 27.9 2.6 8.6 1.6 18.1 2.3 27.1 3.4 7.1 0 13.7.5 20.9.3 1.3.6 3.5.2 5.2.3.8.1 1.3.5 2.3.3.7.2 2-.3 2.3.3 1.8-.2 3.1.3 4.6.5 1.4.4 2.8.7 3.1 2.1-3 1.6-7.7 0-11.9.5-3.7-.6-8.7.1-12.4-.5-8.1.2-17.3.6-25.3 0-8.5-.1-16.6-.6-24.8-1-4-.3-8.3-.2-12.6-.5zm-8.8-2.8c-.1-.8-.6-1.2-.8-1.8 0-.4.1-.9-.5-.8.4.9-.3 2.8 1.3 2.6zm2.5-.3c-.4-.9-.3-2.2-1.5-2.3h-.5c.2 1.3.5 2.4 2 2.3zm6.7-.4h6.2c.7-.2 1.9.3 2.1-.3-4.5-.7-9.5-.8-14.2-1.3-.1 1 .5 1.2.8 1.8 1.8-.1 3.8.1 5.1-.2zm90.3 38.7c.2 12.6-3.2 23-8 31-4.2 7-10.1 12.9-17.3 16.3-.4 1.2.4 1.2.3 2.6-3.6 4.9-11.9 5.1-20.6 4.9-5 .7-10.5 0-15.7 0-3.1-.4-5.9-.9-7.5-2.8.2-3.5-1.2-5.3-2.1-7.5-.7-.6-1.9-1-2.8-1.5-1-.4-1.7-1.2-2.8-1.5-.5-.9-1.9-1.1-2.3-2.1-1.2-.3-1.5-1.4-2.6-1.8-1.3-1.5-2.9-2.9-4.1-4.6-.5-.9-1.5-1.5-1.8-2.6-.9-.4-.9-1.8-1.8-2.3-.8-2-1.9-3.9-2.8-5.9-.9-2-1.5-4.4-2.6-6.2-1.2-4.5-2.4-9-2.8-14.4v-3.9c.3-1.6.5-3.3.8-4.9.7-.7 1.2-1.4 1.8-2.1 1.2-.5 2.2-1.2 3.6-1.5.9-1.2 1.8-2.3 2.8-3.4.5 0 .7-.2.8-.5 1-.3 1.9-.8 2.8-1.3 1.2-.1 2-.5 3.4-.3 1.1.1.9-1.3 1.8-1.5.2-.8 1.3-.7 1.5-1.5 1.1-.4 2.1-.8 3.1-1.3h2.8c.9.1.6-.9 1.5-.8 0-.7 1.3-.3 1.5-.8 2.2.1 5-.3 6.2.8 1.1-.4 1.4-1.7 2.6-2.3 2.6-.8 4.4-2.4 8-2.1 1.2.2 2.2.5 2.8 1.3.9-1 2.1-2.1 3.6-2.6 1.2-.4 2.3.2 3.4 1.3.9-.5 2-.7 3.1-1 3.2.3 4.7 2.3 7 3.4 1.4.1 1.8-.9 3.1-.8.9-.4 2.2-.3 3.4-.3 0 .4.6.3 1 .3 1.6 1.3 2.9 2.8 3.4 5.2 2.1.3 3.8 1 4.1 3.1 1.1-.5 2.3-1.1 4.1-1 .8.1 1.4.4 2.1.5.7.4 1.1 1.1 1.8 1.5.5.6.4 1.7 1 2.1 1.9 0 3.4-.4 4.9.3 4.1 1.1 4.8 8 3.5 12.5zm-3.8 2.8c-5.6.5-9.4 2.8-15.5 2.8-1 .1-1.2-.5-2.3-.3-6 .4-11.9.9-17.8 1.3H53.7C41 70.4 30 67.9 19.5 65c0-.3-.3-.2-.5 0 .3 2.1.2 4.7 1 6.4 3 .1 5.8.4 8.5.8 1.5 0 2.6.4 4.1.5.8.8 2.8.5 2.8 2.1-.3 1.5-2.7 1.1-4.1 1.5-3.7-.4-7.5-.7-10.6-1.8 0 .9.1 1.8.5 2.3-.1.6.5.6.3 1.3.6-.1-.1 1.2.8.8.2.6 1.5.1 2.1.3h2.3c2.1.5 4.9.3 7 .8 1.5-.2 2.2.4 3.4.5.2.5 1.2.2 1.3.8-.1.7.6.7.5 1.5-4.6 1.5-10.8.2-15.5-.5.3 1.6 1 2.9 1.8 4.1 4.1.8 9.6.3 12.1 2.8-1.8 2.5-6.3 1.7-9.8 1.3 0 .7.7.8.8 1.5.3.6 1.9-.1 2.1.5h3.9c.2.6 1.4.1 1.5.8.8 0 .9.7 1 1.3-.7 1.4-3.8 1.2-5.4.8.5 1.3 1.7 1.9 2.6 2.8.6 1.2 2.1 1.6 2.8 2.8.6 0 1.1.7 1.5 1 .5.4 1.2.6 1.5 1.3 1.4.5 1.9 1.9 3.4 2.3.1.3 1 0 1 .5 3.4.2 6.8.5 10.1.8 3.9 0 8-.2 11.3.5.8.8 1.8 1.4 2.3 2.6-.2 1.8.4 2.9.3 4.6h3.1c-.1-1.8 0-3.3 1.5-3.6.4.5 1.1.7 1.3 1.3.1.8-.1 1.9.3 2.3 1.8.1 3.7.1 4.9-.5 1.4-.4 3.6 0 3.6-1.8-.3-.7-2.3.3-2.6-.5-1.1.1-1.7-.5-1.8-1.5.4-1.7 2.5-1.6 4.4-1.8.6-.3.6-1.2 1.5-1.3.6 0 .7.5 1.5.3 2.8-2.4 6-4.4 8.3-7.2 2.5-2.5 4.5-5.8 6.4-9 3.7-6.6 6-14.6 7-23.9zm-54.7 44c0 .9-.1 1.8.5 2.1-.2-.6.5-2.2-.5-2.1zm5.2 3.1c-.3-1 0-2.6-.5-3.4h-.8c-.4.7-.4 2.7 0 3.4zm3.6-.2h3.4c-.3-1-.4-2.3-.3-3.6-1.4.1-2.3.6-3.9.5 0 1.3.4 2.3.8 3.1zM49.6 111h-1.3c.1 1.1.5 1.9 1.3 2.3zm57.3-55.4c-.9-.7-2.8-.6-4.1-.3-1.1.4-1.1 2-2.8 1.8-2-1.1 0-2.9-.3-5.2-.3-.7-1.1-1.1-1.8-1.5-1.6-.1-2.4.5-3.6.8-.3.5-.9.9-1.3 1.3s-.6 1.1-1.5 1c-1.7-.9.2-3.8-1.3-4.9-1.7 0-1.3 2.1-3.1 2.1-2.1-.7-.9-4.8-2.1-6.4-1.7-.5-3.9.3-5.2 1-.6 1.1-.4 2.9-2.1 2.8-2.2-.3-.6-2.8-1.3-4.4-1.3-1.5-4.4-1.9-6.7-1-.2.8.2 2.3-1.5 2.3-1.4 0-.7-2.1-1.5-2.8-.7-.1-.7.5-1.5.3-.7 1 1.4 1.8.5 3.1-.5 0-.3.7-1 .5-1.4.2-1.4-1.1-2.3-1.5-.6-.1-1.1-.4-1.5-.8-.7.1-.9-.3-1.5-.3-3 .3-5.2 1.2-7 2.6.2 1.4 1.1 2 1.3 3.4-.4.7-.7 1.5-1.8 1.5-1.3-.3-1.3-2-2.3-2.8-1.8-1-5.1-1.6-7-.3.2 1.1 1.2 3.1-.3 3.6-.6.2-.6-.6-.8-.8-.3-.3-.7-.4-1-.8-1.7.4-1.5-1.2-3.1-1-.6.1-.7.8-1.3 1-.3 1.7 1.1 1.7.8 3.4-.8 1-2.1.7-3.1 0-1.5 0-2.6-.4-4.1-.5-.7.2-1.2.4-2.1.3-.6.7-1.6 1.1-1.8 2.3.5 1 2.1 1 1.8 2.8-1.1 1.2-2.5-.4-3.9-.5-2.4.4-5.6.1-5.4 3.1 12.5 1.6 22.8 5.4 36.9 5.4 4.1.4 9.8.4 13.9 0 7.7 0 14.2-1.3 22.2-1 5.3-1.1 11.5-1.2 16.3-2.8-.1-.6-.1-1.3.5-1.3.1-2.2-.1-4.2-1.2-5.5zm-41.1-3.1c-1.8.1-1.5 2.2-3.4 2.1-1.1-.5-.8-1.9-.3-2.8 1-.7 1.9-1.6 3.4-1.8 1.9 0 2.5 1.3 3.4 2.3v1.8c.1.6-.8.3-.8.8-.6-.1-1.3-.2-1.3-1-.1-.6-.6-.9-1-1.4zM84.4 58c-1.9-.1-1.4-2.5-3.1-2.8-2-.2-2.6 2.2-4.4 1.3-.7-1.9 1.6-2.8 2.8-3.6h3.1c.7.7 1.8 1.1 2.1 2.3 1 .6.5 2.7-.5 2.8zm-26.3-1.7c.3 1.1 0 1.8-.8 2.3-.9-.1-1.6-.5-1.8-1.5-1 0-1-1.1-2.1-1-.9.1-1.4.7-1.8 1.3-.4.6 0 2-1 2.1-1.2.3-1.3-.6-1.8-1 0-2.3 1.2-3.4 2.3-4.6 1.9-.7 3.6-.4 5.4.5.6.7 1 1.5 1.6 1.9zm-17.3 2.8c-.8 1-2.3-.2-3.6-.3-1-.2-1.3.4-2.1.3-.2-.4-.7-.5-1-.8.6-3 6.7-2 6.7.8zm33.5 3.3c-1.8.2-2.3-1.2-3.6-1.8-.9-.1-1.5-.5-2.6-.3-1.4-.1-1.9 1.4-3.1.8-.6-2.6 2.5-3.5 5.7-3.1 1.6 1 4.6 1.7 3.6 4.4zm19.6.8c-1.3.8-2.2-.7-3.4-.8-1.7-.1-1.3 1.9-2.8 2.1-1.3-.1-1-1.6-.8-2.6.8-.5 1.3-1.3 2.1-1.8h2.6c1 .7 3.3 1.3 2.3 3.1zm-9 15.4c.1 2-.8 3-1.3 4.4-.3 1.5-1.1 2.4-2.3 3.1-.5-.1-.7-.5-1.3-.5-.9-3.2 1.3-5.4 2.3-7.5.2-.2.7-.1.8-.5 1-.1 1.3.6 1.8 1zm-7.8 8.3c-1 1.2-.7 3.7-2.8 3.9-.4 0-.5-.4-1-.3-1.1-1.3-.1-3.4.5-4.6.7-1.4 1.7-2.5 2.6-3.6.1-.4.4-.4.5-.8h1c.8 1.9-.7 3.5-.8 5.4zm1.4 7.5c0 1.4-.7 2.1-2.1 2.1-1.1-1.6 1.1-4 2.1-2.1z"/></g></g></svg>