<svg id="Capa_1" xmlns="http://www.w3.org/2000/svg" viewBox="0 0 120 120"><style>.st0{fill:#1fba0a}</style><path class="st0" d="M12.4 7.7c.8-.1.8.6 1.5.5.5.2 1.7-.3 1.8.3.9-.2 1 .4 1.8.3.5.3 1.5 0 1.8.5 1.4 0 2.6.4 3.9.5.7 0 1.5-.1 1.8.3.6.2 1.9-.3 2.1.3 5.4.5 10.5 1.2 15.5 2.1 5.2.7 10.2 1.5 15.2 2.3 2.7.2 4.9.9 7.7 1 .1.6 1.3.1 1.8.3 0 .7 1.8-.2 1.8.5 1.7.1 2.3.3 3.9 0 .2.6 1.6 0 1.8.5 1.1-.2 1.3.4 2.3.3.8 0 1.3.4 2.3.3.1.7 1.9-.2 2.1.5 1.7-.1 2.9.4 4.4.5.7.2 1.6.1 2.1.5.8 0 1.6.1 2.1.5 2.9.4 5.4 1.3 8 2.1 2.7.4 5.6 1.9 8.5 1.3 0-1.2-1.5-.9-2.1-1.5-.9-.3-1.8-.6-2.6-1-2.1-.3-3.5-1.3-5.7-1.5-.8-.4-1.7-.7-2.6-1-.9-.3-1.9-.6-2.8-.8-1.5-1-3.7-1.3-5.7-1.8-1.6-.8-3.8-1-5.7-1.5-1.9-.6-4.1-.9-5.9-1.5-4.2-.7-7.9-1.9-12.1-2.6C53.6 7.7 45.5 6 37.2 4.6c-.7-.5-2.1-.3-2.8-.8-1.2 0-2-.5-3.1-.5-2-.5-4.2-.8-6.2-1.3-4.3-.6-8.2-1.6-12.7-2-.3.1-.6.3-.8.5-.6 1-1.4 1.8-1.3 3.6.4 1.5 1.3 2.6 2.1 3.6zM15 3.9c5.7 1 11.3 2.1 16.8 3.4-.5.8-1.4-.1-2.1 0-1.1.2-1.3-.4-2.3-.3-1.4-.2-3.1-.2-4.4-.5h-2.3c-.8.2-.8-.4-1.5-.3h-3.9c-.4-.6-.9-1.2-.8-2.3.2-.2.4-.3.5 0zm18.3 26c8.2.4 16.3.9 24.8 1 8 .6 17.2.2 25.3 0 3.7.6 8.7-.1 12.4.5 4.2-.5 8.9 1.1 11.9-.5-.3-1.4-1.7-1.7-3.1-2.1-1.5-.2-2.8-.7-4.6-.5-.3-.6-1.6-.1-2.3-.3-1 .2-1.5-.2-2.3-.3-1.7-.1-3.9.3-5.2-.3-7.2.2-13.8-.3-20.9-.3-9-1.1-18.5-1.8-27.1-3.4-8.4-1.7-17.9-2.4-27.9-2.6-1.4.7-4 .3-5.4 1-.7 1.4-1.3 4.9-.3 6.5 3.8.5 8.3.3 12.1.8 4.3.3 8.6.2 12.6.5zM10.6 24c.6-.1.5.4.5.8.2.6.7 1 .8 1.8-1.6.2-.9-1.7-1.3-2.6zm1.8 0h.5c1.2.1 1.1 1.4 1.5 2.3-1.5.1-1.8-1-2-2.3zm3.6 2.1c-.3-.6-.9-.8-.8-1.8 4.7.5 9.7.6 14.2 1.3-.2.6-1.4.1-2.1.3h-6.2c-1.3.3-3.3.1-5.1.2zm91.9 26c-1.5-.7-3-.3-4.9-.3-.6-.4-.5-1.5-1-2.1-.7-.4-1.1-1.1-1.8-1.5-.7-.1-1.3-.4-2.1-.5-1.8-.1-3 .5-4.1 1-.3-2.1-2-2.8-4.1-3.1-.5-2.4-1.8-3.9-3.4-5.2-.4 0-1 .1-1-.3-1.2 0-2.5-.1-3.4.3-1.3-.1-1.7.9-3.1.8-2.3-1.1-3.8-3.1-7-3.4-1.1.3-2.2.5-3.1 1-1.1-1.1-2.2-1.7-3.4-1.3-1.5.5-2.7 1.6-3.6 2.6-.6-.8-1.6-1.1-2.8-1.3-3.6-.3-5.4 1.3-8 2.1-1.2.6-1.5 1.9-2.6 2.3-1.2-1.1-4-.7-6.2-.8-.2.5-1.5.1-1.5.8-.9-.1-.6.9-1.5.8h-2.8c-1 .5-2 .9-3.1 1.3-.2.8-1.3.7-1.5 1.5-.9.2-.7 1.6-1.8 1.5-1.4-.2-2.2.2-3.4.3-.9.5-1.8 1-2.8 1.3-.1.3-.3.5-.8.5-1 1.1-1.9 2.2-2.8 3.4-1.4.3-2.4 1-3.6 1.5-.6.7-1.1 1.4-1.8 2.1-.3 1.6-.5 3.3-.8 4.9v3.9c.4 5.4 1.6 9.9 2.8 14.4 1.1 1.8 1.7 4.2 2.6 6.2.9 2 2 3.9 2.8 5.9.9.5.9 1.9 1.8 2.3.3 1.1 1.3 1.7 1.8 2.6 1.2 1.7 2.8 3.1 4.1 4.6 1.1.4 1.4 1.5 2.6 1.8.4 1 1.8 1.2 2.3 2.1 1.1.3 1.8 1.1 2.8 1.5.9.5 2.1.9 2.8 1.5.9 2.2 2.3 4 2.1 7.5 1.6 1.9 4.4 2.4 7.5 2.8 5.2 0 10.7.7 15.7 0 8.7.2 17 0 20.6-4.9.1-1.4-.7-1.4-.3-2.6 7.2-3.4 13.1-9.3 17.3-16.3 4.8-8 8.2-18.4 8-31 1.3-4.5.6-11.4-3.5-12.5zm-58.3 61.2c-.8-.4-1.2-1.2-1.3-2.3h1.3v2.3zm3.8.2c-.6-.3-.5-1.2-.5-2.1 1-.1.3 1.5.5 2.1zm3.4 1c-.4-.7-.4-2.7 0-3.4h.8c.5.8.2 2.4.5 3.4h-1.3zm4.9-.2c-.4-.8-.8-1.8-.8-3.1 1.6.1 2.5-.4 3.9-.5-.1 1.3 0 2.6.3 3.6h-3.4zm38.9-23c-1.9 3.2-3.9 6.5-6.4 9-2.3 2.8-5.5 4.8-8.3 7.2-.8.2-.9-.3-1.5-.3-.9.1-.9 1-1.5 1.3-1.9.2-4 .1-4.4 1.8.1 1 .7 1.6 1.8 1.5.3.8 2.3-.2 2.6.5 0 1.8-2.2 1.4-3.6 1.8-1.2.6-3.1.6-4.9.5-.4-.4-.2-1.5-.3-2.3-.2-.6-.9-.8-1.3-1.3-1.5.3-1.6 1.8-1.5 3.6h-3.1c.1-1.7-.5-2.8-.3-4.6-.5-1.2-1.5-1.8-2.3-2.6-3.3-.7-7.4-.5-11.3-.5-3.3-.3-6.7-.6-10.1-.8 0-.5-.9-.2-1-.5-1.5-.4-2-1.8-3.4-2.3-.3-.7-1-.9-1.5-1.3-.4-.3-.9-1-1.5-1-.7-1.2-2.2-1.6-2.8-2.8-.9-.9-2.1-1.5-2.6-2.8 1.6.4 4.7.6 5.4-.8-.1-.6-.2-1.3-1-1.3-.1-.7-1.3-.2-1.5-.8h-3.9c-.2-.6-1.8.1-2.1-.5-.1-.7-.8-.8-.8-1.5 3.5.4 8 1.2 9.8-1.3-2.5-2.5-8-2-12.1-2.8-.8-1.2-1.5-2.5-1.8-4.1 4.7.7 10.9 2 15.5.5.1-.8-.6-.8-.5-1.5-.1-.6-1.1-.3-1.3-.8-1.2-.1-1.9-.7-3.4-.5-2.1-.5-4.9-.3-7-.8h-2.3c-.6-.2-1.9.3-2.1-.3-.9.4-.2-.9-.8-.8.2-.7-.4-.7-.3-1.3-.4-.5-.5-1.4-.5-2.3 3.1 1.1 6.9 1.4 10.6 1.8 1.4-.4 3.8 0 4.1-1.5 0-1.6-2-1.3-2.8-2.1-1.5-.1-2.6-.5-4.1-.5-2.7-.4-5.5-.7-8.5-.8-.8-1.7-.7-4.3-1-6.4.2-.2.5-.3.5 0C30 67.9 41 70.4 53.7 71.2H72c5.9-.4 11.8-.9 17.8-1.3 1.1-.2 1.3.4 2.3.3 6.1 0 9.9-2.3 15.5-2.8-1 9.3-3.3 17.3-7 23.9zm7.5-30.2c-.6 0-.6.7-.5 1.3-4.8 1.6-11 1.7-16.3 2.8-8-.3-14.5 1-22.2 1-4.1.4-9.8.4-13.9 0-14.1 0-24.4-3.8-36.9-5.4-.2-3 3-2.7 5.4-3.1 1.4.1 2.8 1.7 3.9.5.3-1.8-1.3-1.8-1.8-2.8.2-1.2 1.2-1.6 1.8-2.3.9.1 1.4-.1 2.1-.3 1.5.1 2.6.5 4.1.5 1 .7 2.3 1 3.1 0 .3-1.7-1.1-1.7-.8-3.4.6-.2.7-.9 1.3-1 1.6-.2 1.4 1.4 3.1 1 .3.4.7.5 1 .8.2.2.2 1 .8.8 1.5-.5.5-2.5.3-3.6 1.9-1.3 5.2-.7 7 .3 1 .8 1 2.5 2.3 2.8 1.1 0 1.4-.8 1.8-1.5-.2-1.4-1.1-2-1.3-3.4 1.8-1.4 4-2.3 7-2.6.6 0 .8.4 1.5.3.4.4.9.7 1.5.8.9.4.9 1.7 2.3 1.5.7.2.5-.5 1-.5.9-1.3-1.2-2.1-.5-3.1.8.2.8-.4 1.5-.3.8.7.1 2.8 1.5 2.8 1.7 0 1.3-1.5 1.5-2.3 2.3-.9 5.4-.5 6.7 1 .7 1.6-.9 4.1 1.3 4.4 1.7.1 1.5-1.7 2.1-2.8 1.3-.7 3.5-1.5 5.2-1 1.2 1.6 0 5.7 2.1 6.4 1.8 0 1.4-2.1 3.1-2.1 1.5 1.1-.4 4 1.3 4.9.9.1 1.1-.6 1.5-1 .4-.4 1-.8 1.3-1.3 1.2-.3 2-.9 3.6-.8.7.4 1.5.8 1.8 1.5.3 2.3-1.7 4.1.3 5.2 1.7.2 1.7-1.4 2.8-1.8 1.3-.3 3.2-.4 4.1.3 1.1 1.3 1.3 3.3 1.2 5.5zm-41.3-7.2c0 .8.7.9 1.3 1 0-.5.9-.2.8-.8v-1.8c-.9-1-1.5-2.3-3.4-2.3-1.5.2-2.4 1.1-3.4 1.8-.5.9-.8 2.3.3 2.8 1.9.1 1.6-2 3.4-2.1.4.5.9.8 1 1.4zm18.1 1.3c-.3-1.2-1.4-1.6-2.1-2.3h-3.1c-1.2.8-3.5 1.7-2.8 3.6 1.8.9 2.4-1.5 4.4-1.3 1.7.3 1.2 2.7 3.1 2.8 1-.1 1.5-2.2.5-2.8zm-28.4-.8c-1.8-.9-3.5-1.2-5.4-.5-1.1 1.2-2.3 2.3-2.3 4.6.5.4.6 1.3 1.8 1 1-.1.6-1.5 1-2.1.4-.6.9-1.2 1.8-1.3 1.1-.1 1.1 1 2.1 1 .2 1 .9 1.4 1.8 1.5.8-.5 1.1-1.2.8-2.3-.6-.4-1-1.2-1.6-1.9zm-22.4 3.9c.3.3.8.4 1 .8.8.1 1.1-.5 2.1-.3 1.3.1 2.8 1.3 3.6.3 0-2.8-6.1-3.8-6.7-.8zm36.6-.3c-3.2-.4-6.3.5-5.7 3.1 1.2.6 1.7-.9 3.1-.8 1.1-.2 1.7.2 2.6.3 1.3.6 1.8 2 3.6 1.8 1-2.7-2-3.4-3.6-4.4zm20.9 2.1H89c-.8.5-1.3 1.3-2.1 1.8-.2 1-.5 2.5.8 2.6 1.5-.2 1.1-2.2 2.8-2.1 1.2.1 2.1 1.6 3.4.8 1-1.8-1.3-2.4-2.3-3.1zm-8.5 17.5c-.1.4-.6.3-.8.5-1 2.1-3.2 4.3-2.3 7.5.6 0 .8.4 1.3.5 1.2-.7 2-1.6 2.3-3.1.5-1.4 1.4-2.4 1.3-4.4-.5-.4-.8-1.1-1.8-1zm-5.2 3.9h-1c-.1.4-.4.4-.5.8-.9 1.1-1.9 2.2-2.6 3.6-.6 1.2-1.6 3.3-.5 4.6.5-.1.6.3 1 .3 2.1-.2 1.8-2.7 2.8-3.9.1-1.9 1.6-3.5.8-5.4zm-1.5 15c1.4 0 2.1-.7 2.1-2.1-1-1.9-3.2.5-2.1 2.1z" id="_x30_605-rice-chopsticks"/></svg>